<?xml version="1.0" encoding="UTF-8"?>
<svg version="1.1" xmlns="http://www.w3.org/2000/svg" width="786" height="1014">
<path d="M0 0 C0.67933594 0.58394531 1.35867188 1.16789063 2.05859375 1.76953125 C14.68596965 13.46154598 21.39499603 30.93451934 23.94921875 47.73046875 C24.03565009 51.593285 23.04802445 53.72316087 21 57 C18.0559593 59.66582585 15.80750655 60.46316804 11.89453125 60.94921875 C10.41823242 61.13774414 10.41823242 61.13774414 8.91210938 61.33007812 C7.88923828 61.44802734 6.86636719 61.56597656 5.8125 61.6875 C4.80896484 61.81705078 3.80542969 61.94660156 2.77148438 62.08007812 C-15.0242857 64.26836735 -15.0242857 64.26836735 -21 60 C-23.4297938 56.3553093 -24.50919522 52.39397723 -25.8125 48.25 C-27.97825315 41.61221457 -30.59302139 34.60465259 -36.2890625 30.25 C-41.32313782 27.92881253 -46.58360814 28.41259811 -52 29 C-58.74597274 31.77066737 -61.07422646 37.70021253 -63.90625 44.0234375 C-71.26850175 63.23891456 -70.41862901 90.40749386 -62.42578125 109.24609375 C-59.72716305 114.45849328 -56.60054601 118.82590611 -51 121 C-45.58604536 121.6484681 -40.64332958 121.7303687 -35.625 119.5 C-28.63204356 112.84004148 -26.08299757 106.89181405 -24.15234375 97.48828125 C-22.77912699 93.33139118 -21.53133741 91.5826199 -18 89 C-10.59888978 87.03938479 -3.00227222 88.5416494 4.5 89.4375 C5.799375 89.58509766 7.09875 89.73269531 8.4375 89.88476562 C11.62605797 90.24816745 14.81336817 90.62013871 18 91 C18.31960693 90.19973389 18.63921387 89.39946777 18.96850586 88.57495117 C25.4161428 72.71503914 34.77436092 62.95885679 50 55 C49.32002076 51.93658837 48.2929256 49.19587471 47.0625 46.3125 C41.88987023 33.50318773 41.8888168 21.9280839 47 9 C52.90199816 -2.13741771 63.14203644 -9.95459366 75 -14 C91.71327928 -19.12581985 110.44233156 -17.54530994 125.9453125 -9.46484375 C137.19786621 -2.73477416 143.47040743 5.67593872 146.8125 18.25 C149.5390991 31.22381769 146.48594341 42.44638651 139.8125 53.6875 C136.25400562 59.05982737 131.94397842 62.9375061 127 67 C125.99306941 67.99302104 124.99186025 68.99192597 124 70 C124.38333496 70.40839111 124.76666992 70.81678223 125.16162109 71.23754883 C126.90163817 73.09379546 128.63834552 74.95310728 130.375 76.8125 C130.97828125 77.45509766 131.5815625 78.09769531 132.203125 78.75976562 C132.78320312 79.38173828 133.36328125 80.00371094 133.9609375 80.64453125 C134.49509277 81.21534424 135.02924805 81.78615723 135.57958984 82.37426758 C137 84 137 84 139 87 C143.63871924 78.55753099 146.54508607 70.28886354 149 61 C149.5019092 59.26524587 150.02002446 57.53499964 150.5625 55.8125 C150.77003906 55.13832031 150.97757812 54.46414063 151.19140625 53.76953125 C152.15606566 51.658465 153.21684985 50.47796553 155 49 C162.45055032 46.51648323 170.69940736 48.35233423 178.25 49.6875 C179.21679688 49.83638672 180.18359375 49.98527344 181.1796875 50.13867188 C185.55028827 50.90623606 188.45039754 51.60989273 192.109375 54.20703125 C195.36121277 59.0108825 195.29119646 63.15111229 194.25 68.6796875 C193.85143368 70.41571348 193.43383219 72.14744943 193 73.875 C192.77143311 74.79756592 192.54286621 75.72013184 192.30737305 76.6706543 C188.89147356 89.87129153 183.83294039 101.46373863 176.28833008 112.82543945 C174.2611552 115.87868096 172.74488753 118.41272709 172 122 C173.41152344 122.05607422 173.41152344 122.05607422 174.8515625 122.11328125 C176.71941406 122.21189453 176.71941406 122.21189453 178.625 122.3125 C179.85476563 122.37050781 181.08453125 122.42851563 182.3515625 122.48828125 C186.31378269 123.04401021 188.7118343 123.71524303 192 126 C195.66404318 131.87483717 195.45307217 137.7250703 195.375 144.5 C195.38660156 145.50675781 195.39820313 146.51351562 195.41015625 147.55078125 C195.38702962 153.43265532 195.06664717 157.9112405 192 163 C185.72567255 168.3353876 175.23441425 167.33345441 167.37890625 166.71484375 C164.20963831 166.27062363 161.12181357 165.70124635 158 165 C156.80310547 164.74089844 156.80310547 164.74089844 155.58203125 164.4765625 C149.59493028 162.84468011 145.2120133 159.46248915 140.3828125 155.64453125 C138.07102756 153.71599166 138.07102756 153.71599166 135 154 C133.46384454 154.72523258 131.93046639 155.45772284 130.42041016 156.23583984 C107.58670646 167.93173696 81.27642583 170.07875668 56.87231445 162.29907227 C40.09573698 156.3940973 28.29407132 144.48069561 20 129 C19.34 128.01 18.68 127.02 18 126 C17.50693359 126.99966797 17.50693359 126.99966797 17.00390625 128.01953125 C8.24756049 144.98643428 -4.39560007 157.04747868 -22.60546875 163.22265625 C-40.4901537 168.39346154 -61.81651047 168.92920165 -78.79052734 160.06494141 C-99.49277706 148.34224459 -111.06469782 128.88546375 -117.3125 106.375 C-124.24751647 77.54144606 -122.45552272 42.99303719 -106.6875 17.1875 C-105.48715607 15.43820228 -104.25716533 13.70891878 -103 12 C-102.32066406 11.06414063 -101.64132813 10.12828125 -100.94140625 9.1640625 C-89.3117177 -5.96904381 -73.64983313 -13.06991513 -55.30859375 -16.50390625 C-35.2629618 -19.11281057 -15.18121015 -13.14235434 0 0 Z M91 27 C91.20892184 30.27310883 91.43694214 32.32433057 93.5625 34.875 C94.036875 35.24625 94.51125 35.6175 95 36 C98.84280285 34.75368556 101.07319896 33.63951308 103 30 C102.75203633 27.83031791 102.55766393 26.55766393 101 25 C95.40715222 24.35050588 95.40715222 24.35050588 91 27 Z M72.69140625 93.23828125 C69.49043556 96.5723177 68.14426244 99.81847038 67.83984375 104.421875 C68.04950777 109.95700518 69.37057734 113.40283143 73.0390625 117.52734375 C78.80649515 121.85866269 84.07953958 122.45809968 91.0625 122.3125 C91.83916016 122.31572266 92.61582031 122.31894531 93.41601562 122.32226562 C97.98816375 122.27967999 101.69969616 121.72700202 106 120 C104.4186938 116.26077871 102.06769602 113.70350263 99.3125 110.75 C98.40567271 109.77006516 97.4994254 108.78959329 96.59375 107.80859375 C95.7378125 106.88175781 94.881875 105.95492187 94 105 C92.76435445 103.60989876 91.53429646 102.21478912 90.3125 100.8125 C89.76851562 100.18988281 89.22453125 99.56726563 88.6640625 98.92578125 C87.46235327 97.53507081 86.27089013 96.13548401 85.0859375 94.73046875 C84.45945312 93.99441406 83.83296875 93.25835938 83.1875 92.5 C82.62417969 91.8296875 82.06085938 91.159375 81.48046875 90.46875 C78.1251621 87.1400025 75.46827405 90.75127439 72.69140625 93.23828125 Z " fill="#040482" transform="translate(343,660)"/>
<path d="M0 0 C87.78 0 175.56 0 266 0 C266.1613254 70.93388049 266.1613254 70.93388049 266.1953125 100.70117188 C266.20314227 107.51293984 266.21122371 114.32470744 266.21972656 121.13647461 C266.22078156 121.99004773 266.22183655 122.84362086 266.22292352 123.72305983 C266.24025196 137.44708482 266.27174863 151.17104176 266.30861118 164.8950266 C266.34621001 179.01239766 266.36827555 193.12973345 266.37635398 207.24715251 C266.38180281 215.93640118 266.39891877 224.62545755 266.43166587 233.31464692 C266.45304858 239.29851624 266.45914734 245.28228827 266.45400551 251.26619289 C266.45147992 254.70256953 266.45723256 258.13834961 266.4768219 261.57470894 C266.77393165 316.45000489 250.59188712 369.61009027 218 414 C217.58395508 414.5676709 217.16791016 415.1353418 216.73925781 415.72021484 C213.91017829 419.54878281 210.99032332 423.29624356 208 427 C207.56671387 427.5377002 207.13342773 428.07540039 206.68701172 428.62939453 C194.97915268 443.01915532 181.84849417 456.82957319 167 468 C166.53449738 468.48826263 166.06899475 468.97652527 165.58938599 469.47958374 C158.8991497 475.78359343 150.82834911 474.76018676 142.25 474.5859375 C140.62477187 474.57473166 138.99952332 474.56619804 137.37426758 474.56021118 C133.11915046 474.53742134 128.86528357 474.47858616 124.61065674 474.4119873 C120.26014107 474.35035 115.90942122 474.32315068 111.55859375 474.29296875 C103.03849198 474.22883062 94.51940199 474.12657408 86 474 C88.84835248 471.82018594 91.61251532 470.07382647 94.82421875 468.46875 C95.76225342 467.99348877 96.70028809 467.51822754 97.66674805 467.02856445 C98.66359619 466.52413818 99.66044434 466.01971191 100.6875 465.5 C115.38324617 457.94175954 129.04730061 449.28440797 142 439 C143.46373047 437.84371094 143.46373047 437.84371094 144.95703125 436.6640625 C160.97361265 423.71112382 175.13650122 408.82050846 187 392 C187.65355469 391.09749512 187.65355469 391.09749512 188.3203125 390.17675781 C218.27273854 348.71653618 229.07408532 299.97347334 229.20532227 249.76831055 C229.21491549 247.43144564 229.22492639 245.09458242 229.23532104 242.75772095 C229.26221976 236.44671942 229.28331017 230.13571052 229.30332303 223.8246839 C229.32304839 217.8874763 229.34716439 211.95028784 229.37124526 206.01309655 C229.41876244 194.26273108 229.46206898 182.51235409 229.50268555 170.76196289 C229.5421217 159.35570379 229.58357786 147.94945492 229.62768555 136.54321289 C229.63043505 135.83154864 229.63318456 135.11988439 229.63601738 134.38665456 C229.65995604 128.19503183 229.68404648 122.00340969 229.70815182 115.81178761 C229.81153031 89.20787824 229.9049498 62.60394344 230 36 C154.1 36 78.2 36 0 36 C0 24.12 0 12.24 0 0 Z " fill="#48986D" transform="translate(377,96)"/>
<path d="M0 0 C6.53594397 0.816993 11.98609151 1.97896907 18.1875 3.875 C19.06341797 4.13152344 19.93933594 4.38804687 20.84179688 4.65234375 C22.11700195 5.03712891 22.11700195 5.03712891 23.41796875 5.4296875 C24.55915161 5.77362549 24.55915161 5.77362549 25.72338867 6.12451172 C28.48233691 7.18548634 30.62911651 8.20911281 33 10 C33.62099248 12.61680573 33.62099248 12.61680573 33.61523914 15.8352232 C33.62519439 17.0603848 33.63514963 18.28554639 33.64540654 19.5478341 C33.6311404 20.91459981 33.6164124 22.28136076 33.60127258 23.64811707 C33.60345175 25.09439116 33.60782743 26.54066334 33.61421841 27.98692495 C33.62543206 31.97094891 33.60535376 35.95430452 33.58032811 39.93824327 C33.55878976 44.23066439 33.56603882 48.52304605 33.56983948 52.81550598 C33.57246467 60.25568298 33.55674149 67.6956412 33.52865028 75.13576317 C33.48806134 85.89296923 33.4749978 96.65006921 33.46871033 107.40734354 C33.45775989 124.8591061 33.42446541 142.31075199 33.37719727 159.76245117 C33.33132104 176.71784896 33.29597697 193.67321493 33.2746582 210.62866211 C33.27331822 211.68398418 33.27197823 212.73930624 33.27059764 213.82660776 C33.26020088 222.07958945 33.25041613 230.33257183 33.24082482 238.58555448 C33.1936334 279.0571434 33.09304757 319.52844035 33 360 C102.3 360 171.6 360 243 360 C243 370.89 243 381.78 243 393 C162.48 393 81.96 393 -1 393 C-0.67 263.31 -0.34 133.62 0 0 Z " fill="#00007F" transform="translate(400,228)"/>
<path d="M0 0 C8.3792685 5.70473118 13.80771116 12.33939552 16.9921875 22.07421875 C19.23266081 34.44254592 16.68216185 45.43513164 10.03515625 55.87109375 C5.36354763 62.38936178 -0.62147377 67.29348236 -7.625 71.1875 C-8.285 71.1875 -8.945 71.1875 -9.625 71.1875 C-4.23964099 77.9126947 1.30906185 84.38449111 7.1328125 90.734375 C14.375 98.65788328 14.375 98.65788328 14.375 101.1875 C15.035 101.1875 15.695 101.1875 16.375 101.1875 C16.63539063 100.506875 16.89578125 99.82625 17.1640625 99.125 C18.29241533 96.38783443 19.54187483 93.73601089 20.8371582 91.07470703 C25.22020967 82.0131965 28.4789494 72.90331636 30.4375 63 C31.375 59.1875 31.375 59.1875 34.375 57.1875 C36.53222656 57.2199707 36.53222656 57.2199707 39.015625 57.61328125 C39.92183594 57.75056641 40.82804688 57.88785156 41.76171875 58.02929688 C42.70660156 58.18462891 43.65148437 58.33996094 44.625 58.5 C45.55441406 58.64373047 46.48382812 58.78746094 47.44140625 58.93554688 C49.25691568 59.21673257 51.07142514 59.50446698 52.88476562 59.79931641 C55.06155814 60.13863995 57.23431931 60.41124265 59.421875 60.66796875 C62.375 61.1875 62.375 61.1875 64.375 63.1875 C64.81528371 69.25807848 63.8538927 74.47629574 62.25 80.3125 C62.0233667 81.14434814 61.7967334 81.97619629 61.56323242 82.83325195 C57.47308456 97.33925231 50.79163853 113.82308622 39.375 124.1875 C40.89578773 128.44570565 43.50715172 130.02683993 47.375 132.1875 C51.18533426 132.8053052 51.18533426 132.8053052 55.125 132.8125 C62.17982897 132.99232897 62.17982897 132.99232897 64.375 135.1875 C64.83603073 139.64904808 64.69898794 144.14240638 64.6875 148.625 C64.70361328 149.87861328 64.71972656 151.13222656 64.73632812 152.42382812 C64.73697266 153.62330078 64.73761719 154.82277344 64.73828125 156.05859375 C64.74126221 157.16130615 64.74424316 158.26401855 64.74731445 159.40014648 C64.375 162.1875 64.375 162.1875 63.10620117 164.04785156 C61.00305993 165.43234787 59.81868254 165.56129948 57.3125 165.55078125 C56.12491089 165.55223145 56.12491089 165.55223145 54.91333008 165.55371094 C54.07568115 165.53598633 53.23803223 165.51826172 52.375 165.5 C51.51865967 165.4887207 50.66231934 165.47744141 49.7800293 165.46582031 C34.25152689 165.13089471 25.18234144 161.15599318 13.375 151.1875 C9.93794939 152.49747023 6.65805512 154.01807524 3.36303711 155.64990234 C-17.04116 165.64477704 -41.09781407 168.93517714 -63.11328125 162.44140625 C-73.37507947 158.77729365 -80.97639744 153.95199048 -88.625 146.1875 C-89.74261719 145.06794922 -89.74261719 145.06794922 -90.8828125 143.92578125 C-95.42965813 139.11887618 -98.50496893 134.46363157 -100.625 128.1875 C-100.98078125 127.15367187 -101.3365625 126.11984375 -101.703125 125.0546875 C-104.42957261 113.61747085 -104.21741918 99.65580965 -98.625 89.1875 C-98.2125 88.34316406 -97.8 87.49882813 -97.375 86.62890625 C-90.89441599 74.53304348 -79.4369595 67.43307358 -67.625 61.1875 C-66.965 61.1875 -66.305 61.1875 -65.625 61.1875 C-66.33076172 60.06214844 -66.33076172 60.06214844 -67.05078125 58.9140625 C-74.32968302 46.94833165 -78.31393302 35.47494198 -74.93359375 21.28515625 C-70.82819706 10.13702882 -62.79027186 1.88745892 -52.0625 -3.125 C-36.20693699 -9.95556418 -15.04078857 -8.48746465 0 0 Z M-33.625 31.1875 C-33.41607816 34.46060883 -33.18805786 36.51183057 -31.0625 39.0625 C-30.588125 39.43375 -30.11375 39.805 -29.625 40.1875 C-25.78219715 38.94118556 -23.55180104 37.82701308 -21.625 34.1875 C-21.87296367 32.01781791 -22.06733607 30.74516393 -23.625 29.1875 C-29.21784778 28.53800588 -29.21784778 28.53800588 -33.625 31.1875 Z M-51.93359375 97.42578125 C-55.13456444 100.7598177 -56.48073756 104.00597038 -56.78515625 108.609375 C-56.57549223 114.14450518 -55.25442266 117.59033143 -51.5859375 121.71484375 C-45.81850485 126.04616269 -40.54546042 126.64559968 -33.5625 126.5 C-32.78583984 126.50322266 -32.00917969 126.50644531 -31.20898438 126.50976562 C-26.63683625 126.46717999 -22.92530384 125.91450202 -18.625 124.1875 C-20.2063062 120.44827871 -22.55730398 117.89100263 -25.3125 114.9375 C-26.21932729 113.95756516 -27.1255746 112.97709329 -28.03125 111.99609375 C-28.8871875 111.06925781 -29.743125 110.14242187 -30.625 109.1875 C-31.86064555 107.79739876 -33.09070354 106.40228912 -34.3125 105 C-34.85648438 104.37738281 -35.40046875 103.75476563 -35.9609375 103.11328125 C-37.16264673 101.72257081 -38.35410987 100.32298401 -39.5390625 98.91796875 C-40.16554688 98.18191406 -40.79203125 97.44585938 -41.4375 96.6875 C-42.00082031 96.0171875 -42.56414062 95.346875 -43.14453125 94.65625 C-46.4998379 91.3275025 -49.15672595 94.93877439 -51.93359375 97.42578125 Z " fill="#020280" transform="translate(467.625,655.8125)"/>
<path d="M0 0 C0 12.21 0 24.42 0 37 C-2.949375 38.051875 -5.89875 39.10375 -8.9375 40.1875 C-27.41943236 47.07489263 -45.02850881 56.42504597 -61 68 C-62.02738281 68.73605469 -63.05476562 69.47210938 -64.11328125 70.23046875 C-83.25221583 84.25575804 -101.20658519 100.60252665 -115 120 C-115.47066895 120.65339355 -115.94133789 121.30678711 -116.42626953 121.97998047 C-139.00371212 153.60623025 -152.40059697 189.65851306 -158 228 C-158.16871613 229.07548096 -158.33743225 230.15096191 -158.51126099 231.2590332 C-159.29369808 237.60892947 -159.1699373 243.99853206 -159.18945312 250.38647461 C-159.19740702 251.83429194 -159.20579586 253.28210693 -159.21458435 254.72991943 C-159.23255661 257.8329646 -159.24760132 260.93600492 -159.26036072 264.03907585 C-159.28066081 268.94214567 -159.30829737 273.84515759 -159.33703613 278.7481842 C-159.40206604 290.03063895 -159.45774555 301.31313604 -159.51302338 312.59564209 C-159.56384911 322.95826301 -159.61664614 333.32086252 -159.67754889 343.68342978 C-159.7059404 348.56205464 -159.72951879 353.44067233 -159.74947357 358.31933868 C-159.76281866 361.34365534 -159.78023146 364.3679384 -159.79878426 367.39222717 C-159.80656684 368.79956785 -159.81262471 370.20691921 -159.81687737 371.61427498 C-159.8228862 373.52716628 -159.83549998 375.44003352 -159.84851074 377.35289001 C-159.85366447 378.42560622 -159.85881821 379.49832243 -159.86412811 380.60354519 C-160 383 -160 383 -161 384 C-163.6662603 384.08855161 -166.30647114 384.11524673 -168.97265625 384.09765625 C-169.77029892 384.0962413 -170.56794159 384.09482635 -171.38975525 384.09336853 C-173.94737435 384.08775316 -176.50490718 384.07519812 -179.0625 384.0625 C-180.79231645 384.05748698 -182.52213426 384.05292373 -184.25195312 384.04882812 C-188.50133553 384.03777875 -192.75065312 384.02050386 -197 384 C-197.09398601 363.83116932 -197.16424234 343.66238389 -197.20724869 323.49337864 C-197.22775965 314.12580042 -197.25565706 304.75835928 -197.30175781 295.39086914 C-197.34198085 287.21371812 -197.36751578 279.03666651 -197.37635398 270.85941929 C-197.3815096 266.54088983 -197.39337857 262.22264442 -197.42292023 257.90420723 C-197.8918727 186.49494137 -172.87807074 119.75243517 -122.59179688 68.35986328 C-115.71876485 61.43081756 -108.75176171 54.93995942 -101 49 C-99.56914062 47.84371094 -99.56914062 47.84371094 -98.109375 46.6640625 C-72.69406638 26.42121619 -33.35086916 0 0 0 Z " fill="#48986D" transform="translate(316,105)"/>
<path d="M0 0 C0.56882385 4.32306129 0.82605003 8.64610931 1 13 C1.0417334 14.01336426 1.0834668 15.02672852 1.12646484 16.07080078 C1.23315829 19.52857005 1.24975987 22.97819286 1.25 26.4375 C1.29068604 27.57493652 1.33137207 28.71237305 1.37329102 29.88427734 C1.32721175 33.25030536 1.16108732 35.83518814 0 39 C-3.33466057 41.85019433 -6.966399 43.35405672 -11 45 C-17.70774916 48.82646992 -23.87051158 53.45145399 -29.4765625 58.75 C-31 60 -31 60 -33 60 C-33 60.66 -33 61.32 -33 62 C-33.804375 62.639375 -34.60875 63.27875 -35.4375 63.9375 C-40.40045958 67.90786766 -44.06619806 73.0525392 -48 78 C-48.67289062 78.79535156 -49.34578125 79.59070313 -50.0390625 80.41015625 C-62.81744784 95.65767182 -70.47923765 113.42298132 -75.875 132.4375 C-76.06610352 133.10950439 -76.25720703 133.78150879 -76.45410156 134.47387695 C-79.42061419 145.62252671 -80.36471126 156.74355969 -80.3125 168.25 C-80.30831055 169.52053223 -80.30412109 170.79106445 -80.29980469 172.10009766 C-80.18437725 181.73092061 -79.28283694 190.6611216 -77 200 C-76.59974609 201.84271484 -76.59974609 201.84271484 -76.19140625 203.72265625 C-72.20563175 220.56919647 -64.19382725 237.26579192 -54 251.25 C-52 254 -52 254 -52 256 C-51.01 256.33 -50.02 256.66 -49 257 C-47.23828125 259.00390625 -47.23828125 259.00390625 -45.3125 261.5625 C-39.76465893 268.67225611 -33.90854207 274.6514268 -26.46875 279.7734375 C-25.9840625 280.17820312 -25.499375 280.58296875 -25 281 C-25 281.66 -25 282.32 -25 283 C-24.23236328 283.35191406 -24.23236328 283.35191406 -23.44921875 283.7109375 C-20.80447713 285.10290678 -18.32859715 286.69752854 -15.82421875 288.32543945 C-2.04268768 297.22824162 12.16183839 303.72646927 28 308 C29.05574219 308.29648437 30.11148438 308.59296875 31.19921875 308.8984375 C40.47440823 311.20297412 49.8641563 311.74258902 59.37841797 312.35424805 C61.02608154 312.46119995 61.02608154 312.46119995 62.70703125 312.5703125 C64.19940308 312.65949951 64.19940308 312.65949951 65.72192383 312.75048828 C68 313 68 313 69 314 C69.10091475 316.58189446 69.13971499 319.136465 69.1328125 321.71875 C69.13376923 322.49182495 69.13472595 323.2648999 69.13571167 324.06140137 C69.13639341 325.69897544 69.13453957 327.33655219 69.13037109 328.97412109 C69.12502271 331.48931921 69.13031626 334.00433873 69.13671875 336.51953125 C69.13605797 338.10677123 69.1347768 339.6940111 69.1328125 341.28125 C69.13483673 342.03853394 69.13686096 342.79581787 69.13894653 343.5760498 C69.11495132 348.88504868 69.11495132 348.88504868 68 350 C44.18764372 351.34884807 18.78187689 346.80611975 -3 337 C-3.85529297 336.61537598 -4.71058594 336.23075195 -5.59179688 335.83447266 C-16.93802217 330.67657517 -28.01312966 325.53452092 -38 318 C-38.76699219 317.42894531 -39.53398437 316.85789062 -40.32421875 316.26953125 C-42.58071929 314.54860501 -44.79510978 312.78652644 -47 311 C-47.90878906 310.26523437 -48.81757813 309.53046875 -49.75390625 308.7734375 C-52.51334723 306.5283413 -55.2587249 304.26722001 -58 302 C-58.74378906 301.39414062 -59.48757813 300.78828125 -60.25390625 300.1640625 C-61.8747387 298.82155482 -63.44427272 297.41744041 -65 296 C-65 295.34 -65 294.68 -65 294 C-65.66 294 -66.32 294 -67 294 C-73.09168392 288.26267996 -78.30994978 280.91277243 -83 274 C-83 273.34 -83 272.68 -83 272 C-83.66 272 -84.32 272 -85 272 C-85.87890625 270.40494792 -86.7578125 268.80989583 -87.63671875 267.21484375 C-88.81493771 265.30065994 -90.06558131 263.5453871 -91.40234375 261.7421875 C-94.03997336 258.07965038 -96.00119005 254.2840729 -97.875 250.1875 C-98.21378174 249.45176758 -98.55256348 248.71603516 -98.90161133 247.95800781 C-113.36106676 216.13440094 -119.75263358 182.64871252 -115.75 147.6875 C-115.61577637 146.50760498 -115.48155273 145.32770996 -115.34326172 144.11206055 C-114.25848164 135.1209738 -112.60955415 126.67045411 -110 118 C-109.62508191 116.65789234 -109.25141868 115.31543361 -108.87890625 113.97265625 C-106.23174986 104.70926266 -102.59467192 96.49193829 -98 88 C-97.505 87.05640625 -97.01 86.1128125 -96.5 85.140625 C-89.99696988 72.91210097 -82.62674688 61.79810494 -74 51 C-73.28585938 50.09894531 -72.57171875 49.19789063 -71.8359375 48.26953125 C-70.00652172 46.00806196 -68.16265862 43.94639276 -66 42 C-65.34 42 -64.68 42 -64 42 C-64 41.34 -64 40.68 -64 40 C-62.53125 38.51953125 -62.53125 38.51953125 -60.5 36.8125 C-57.3048542 34.11409682 -57.3048542 34.11409682 -54.1796875 31.3359375 C-41.74982422 19.98225286 -27.08142473 10.74884255 -11.9375 3.5 C-11.21071045 3.14921387 -10.4839209 2.79842773 -9.73510742 2.43701172 C-6.19378252 0.79067547 -3.96798436 0 0 0 Z " fill="#000080" transform="translate(317,189)"/>
<path d="M0 0 C0 129.69 0 259.38 0 393 C-6.3945949 393 -11.32527385 392.26779194 -17.4375 390.8125 C-18.34048828 390.61591797 -19.24347656 390.41933594 -20.17382812 390.21679688 C-21.06392578 390.00732422 -21.95402344 389.79785156 -22.87109375 389.58203125 C-23.66443115 389.39874268 -24.45776855 389.2154541 -25.27514648 389.02661133 C-29.28491525 387.51589745 -32.86057506 385.98556684 -36 383 C-37.17771586 379.80278875 -37.07617506 376.75264044 -37.00672913 373.37358093 C-37.0241659 371.9077145 -37.0241659 371.9077145 -37.04195493 370.4122346 C-37.07124023 367.1275887 -37.04336554 363.84590483 -37.01586914 360.5612793 C-37.02511687 358.20353642 -37.03786094 355.84580506 -37.05383301 353.48809814 C-37.08381766 347.71376555 -37.07671539 341.94031897 -37.05354715 336.1659741 C-37.02803382 329.32361469 -37.04755484 322.4815858 -37.06895035 315.63923893 C-37.10630671 303.27869855 -37.10698611 290.91842896 -37.08569336 278.55786133 C-37.06559029 266.8500945 -37.06351019 255.1425768 -37.08764648 243.43481445 C-37.08908679 242.72927578 -37.0905271 242.02373711 -37.09201105 241.29681848 C-37.0978695 238.45167733 -37.10382762 235.60653641 -37.10991726 232.76139574 C-37.27169287 156.50348882 -36.78737888 80.2536258 -36 4 C-33.44567042 3.51237581 -30.89094265 3.02702953 -28.3359375 2.54296875 C-27.61784912 2.40564331 -26.89976074 2.26831787 -26.15991211 2.12683105 C-17.33138808 0.45854793 -9.0626074 0 0 0 Z " fill="#48986D" transform="translate(365,97)"/>
<path d="M0 0 C1.95969727 -0.0309375 1.95969727 -0.0309375 3.95898438 -0.0625 C11.57514735 -0.09347575 17.35669012 -0.07028757 23.5625 4.6875 C25.88639163 7.91512727 25.81172588 11.50244236 25.80775452 15.36260986 C25.80912918 16.39463531 25.81050385 17.42666077 25.81192017 18.48995972 C25.80652725 20.17957321 25.80652725 20.17957321 25.80102539 21.90332031 C25.80117142 23.09384003 25.80131744 24.28435974 25.8014679 25.51095581 C25.80089086 28.77096274 25.79587765 32.03092667 25.78889394 35.29092503 C25.78264008 38.699543 25.78205499 42.10816184 25.78086853 45.51678467 C25.77776121 51.96944884 25.76955589 58.42209605 25.75951904 64.87475276 C25.74833931 72.22174087 25.74284276 79.56872978 25.73782361 86.91572428 C25.72737279 102.02715896 25.70978493 117.13857779 25.6875 132.25 C26.37352798 132.24333817 27.05955597 132.23667633 27.76637268 132.22981262 C34.92045393 132.163331 42.0744471 132.11814592 49.22875977 132.08520508 C51.89723072 132.07183639 54.56521718 132.04968395 57.23364258 132.02368164 C61.07379252 131.98720415 64.91361438 131.97025141 68.75390625 131.95703125 C70.53711021 131.93380547 70.53711021 131.93380547 72.3563385 131.91011047 C79.4295434 131.90868027 84.86126948 132.18901559 90.5625 136.75 C94.10426824 141.47235766 92.91198564 148.37527799 92.92773438 153.96411133 C92.93741783 156.04484373 92.96844366 158.12457832 93 160.20507812 C93.00653307 161.53905667 93.01178235 162.87304224 93.015625 164.20703125 C93.0249707 165.41335205 93.03431641 166.61967285 93.04394531 167.86254883 C92.63239295 171.77370573 91.94223691 174.01865074 89.6875 177.25 C84.05641253 180.32709091 79.34604782 180.68191207 73.0078125 180.63818359 C72.06218445 180.64344055 71.1165564 180.64869751 70.14227295 180.65411377 C67.0321781 180.66726301 63.92259961 180.65859354 60.8125 180.6484375 C58.64208885 180.65045969 56.47167836 180.65337234 54.30126953 180.65713501 C49.75872307 180.6615515 45.21635393 180.65514893 40.67382812 180.64111328 C34.85993332 180.62402197 29.04645404 180.63386675 23.23257446 180.65183067 C18.75265387 180.66268666 14.27283131 180.6592138 9.79290771 180.6514473 C7.64955597 180.64945032 5.50619525 180.65188687 3.362854 180.65888596 C0.3640597 180.66653018 -2.63406768 180.65485429 -5.6328125 180.63818359 C-6.51302063 180.64425629 -7.39322876 180.65032898 -8.30010986 180.65658569 C-13.69973058 180.60115759 -17.63481656 180.05847173 -22.3125 177.25 C-25.03461092 172.86503779 -25.68855515 169.53084834 -25.69345093 164.41197205 C-25.6981309 163.74883784 -25.70281087 163.08570364 -25.70763266 162.40247446 C-25.71954119 160.19380907 -25.71014227 157.98576894 -25.70068359 155.77709961 C-25.70475112 154.1882847 -25.71009401 152.59947263 -25.71661377 151.01066589 C-25.73027062 146.70496689 -25.72499579 142.39948394 -25.71547651 138.09378123 C-25.70787279 133.58510306 -25.71492739 129.07644319 -25.71963501 124.56776428 C-25.72508992 116.99786055 -25.7179073 109.42804468 -25.70361328 101.8581543 C-25.68728137 93.1080115 -25.69258024 84.35807835 -25.7090925 75.60794061 C-25.72270786 68.09186189 -25.72462696 60.57584627 -25.71677649 53.0597592 C-25.71210101 48.57213724 -25.71147181 44.08461383 -25.72138596 39.59699821 C-25.73005429 35.3788363 -25.72403624 31.16094469 -25.70670319 26.94281197 C-25.70273788 25.39524408 -25.70387317 23.84765342 -25.71049118 22.3000946 C-25.7186952 20.18677116 -25.70840018 18.07431271 -25.69345093 15.96104431 C-25.69231985 14.77880248 -25.69118877 13.59656065 -25.69002342 12.37849331 C-25.16648316 8.03997523 -23.59285053 5.40644564 -20.375 2.5 C-14.3881809 -1.12837521 -6.73968808 0.02636553 0 0 Z " fill="#020281" transform="translate(564.3125,644.75)"/>
<path d="M0 0 C1.95969727 -0.0309375 1.95969727 -0.0309375 3.95898438 -0.0625 C16.04935455 -0.11167283 16.04935455 -0.11167283 21.6875 3.25 C25.0527414 6.83959082 25.81161488 10.13689153 25.82121277 14.95832825 C25.82761024 16.41084991 25.82761024 16.41084991 25.83413696 17.89271545 C25.83345718 19.48459938 25.83345718 19.48459938 25.83276367 21.10864258 C25.83612228 22.22776031 25.8394809 23.34687805 25.84294128 24.49990845 C25.85246977 28.21479391 25.85439594 31.92963431 25.85546875 35.64453125 C25.85868211 38.22987385 25.86204624 40.81521626 25.86555481 43.40055847 C25.87155229 48.83206683 25.87343708 54.26355734 25.87280273 59.69506836 C25.87220482 65.94159421 25.88269818 72.1880329 25.8985464 78.43453676 C25.91329917 84.46744632 25.9167879 90.50030939 25.91619301 96.53323936 C25.91736729 99.08668051 25.92175784 101.64012241 25.92952538 104.19355202 C26.05823123 150.91041518 26.05823123 150.91041518 10.6875 167.25 C4.07563727 173.18963997 -2.79890314 176.8267021 -11.3125 179.25 C-12.0034375 179.46269531 -12.694375 179.67539062 -13.40625 179.89453125 C-28.0939032 183.82065393 -49.32411369 184.33081909 -63.3125 178.25 C-66.9979123 174.82783144 -68.13556197 171.82686116 -68.47363281 166.90332031 C-68.51931081 164.10209036 -68.54775489 161.30157088 -68.5625 158.5 C-68.583125 157.53578125 -68.60375 156.5715625 -68.625 155.578125 C-68.65839254 149.43389822 -68.15014378 144.75256142 -65.3125 139.25 C-61.31758872 136.13147041 -58.10352851 135.85194366 -53.11328125 135.7734375 C-52.09889229 135.75006821 -52.09889229 135.75006821 -51.06401062 135.72622681 C-48.91768448 135.67894988 -46.77167991 135.65101744 -44.625 135.625 C-42.46783408 135.58847452 -40.31084912 135.54787062 -38.15385437 135.50234985 C-36.20468511 135.46279249 -34.25528836 135.43496492 -32.3059082 135.40771484 C-29.38718808 135.45381671 -29.38718808 135.45381671 -27.3125 134.25 C-26.33580773 131.31992318 -26.18340357 129.43238389 -26.17446899 126.38067627 C-26.16901566 125.37696991 -26.16356232 124.37326355 -26.15794373 123.33914185 C-26.15638023 121.68868362 -26.15638023 121.68868362 -26.15478516 120.00488281 C-26.14970444 118.84526031 -26.14462372 117.68563782 -26.13938904 116.49087524 C-26.12867608 113.96834319 -26.12005954 111.44580158 -26.11326981 108.92325592 C-26.10149568 104.93046437 -26.08232799 100.93775087 -26.06015015 96.94500732 C-25.99827153 85.5909818 -25.94425538 74.23696101 -25.91113281 62.8828125 C-25.89275922 56.61198101 -25.86378821 50.34129072 -25.8231281 44.07056308 C-25.80210197 40.75430198 -25.78829559 37.43825677 -25.78432083 34.12192535 C-25.77941288 30.41863841 -25.75625597 26.71587575 -25.72900391 23.01269531 C-25.73201004 21.92048676 -25.73501617 20.8282782 -25.7381134 19.70297241 C-25.67338882 13.78080512 -25.19907922 9.46558094 -22.3125 4.25 C-16.37752125 -1.49352782 -7.67072982 0.03000774 0 0 Z " fill="#000080" transform="translate(193.3125,644.75)"/>
<path d="M0 0 C1.12276085 -0.0049926 1.12276085 -0.0049926 2.26820374 -0.01008606 C3.85449609 -0.01515818 5.44079915 -0.0174943 7.02709961 -0.01733398 C9.45899994 -0.01951898 11.89044574 -0.03766706 14.32226562 -0.05664062 C15.86067553 -0.05957474 17.39908759 -0.06155942 18.9375 -0.0625 C20.03287331 -0.07327827 20.03287331 -0.07327827 21.15037537 -0.08427429 C26.30633318 -0.06085432 26.30633318 -0.06085432 28.53515625 2.16796875 C28.87903889 4.3870405 29.13508755 6.61999357 29.34765625 8.85546875 C31.3872327 26.75986565 39.17939582 41.44341117 50.53515625 55.16796875 C51.0765625 55.82667969 51.61796875 56.48539063 52.17578125 57.1640625 C66.14088273 72.48892386 88.18145435 82.06242711 108.63061523 83.29418945 C129.71952547 84.02571756 148.73840978 80.0122065 165.49609375 66.671875 C167.53515625 65.16796875 167.53515625 65.16796875 169.53515625 65.16796875 C169.53515625 64.50796875 169.53515625 63.84796875 169.53515625 63.16796875 C171.07421875 61.6875 171.07421875 61.6875 173.16015625 59.98046875 C179.1056285 54.90532136 183.53012889 49.5858525 187.359375 42.76953125 C188.53515625 41.16796875 188.53515625 41.16796875 191.53515625 40.16796875 C193.82836914 40.57348633 193.82836914 40.57348633 196.5078125 41.3125 C197.49072266 41.57740234 198.47363281 41.84230469 199.48632812 42.11523438 C200.51306641 42.40076172 201.53980469 42.68628906 202.59765625 42.98046875 C209.87432395 44.97439768 217.11216903 46.80146661 224.53515625 48.16796875 C222.96015812 62.4724038 209.79928698 77.27593512 199.91015625 87.09375 C198.53515625 88.16796875 198.53515625 88.16796875 196.53515625 88.16796875 C196.53515625 88.82796875 196.53515625 89.48796875 196.53515625 90.16796875 C193.07361779 93.16796875 193.07361779 93.16796875 190.53515625 93.16796875 C190.53515625 93.82796875 190.53515625 94.48796875 190.53515625 95.16796875 C188.42401962 96.8212315 186.33068922 98.31886785 184.09765625 99.79296875 C183.42750488 100.23592285 182.75735352 100.67887695 182.06689453 101.13525391 C160.85972975 114.78837663 135.62221495 122.23536395 110.34765625 120.91796875 C109.43346924 120.8705957 108.51928223 120.82322266 107.57739258 120.77441406 C99.67620324 120.29500827 92.21625445 119.14883956 84.53515625 117.16796875 C83.27832031 116.85214844 82.02148438 116.53632812 80.7265625 116.2109375 C50.9736996 108.14305609 23.04122243 86.62957047 7.60986328 60.07763672 C-1.29483058 44.25471182 -8.63182923 25.72411692 -8.58984375 7.35546875 C-8.59242187 6.21464844 -8.595 5.07382812 -8.59765625 3.8984375 C-8.33594761 -1.48198422 -4.37381257 0.00664681 0 0 Z " fill="#48986D" transform="translate(127.46484375,499.83203125)"/>
<path d="M0 0 C15.11689819 11.5001045 22.01800474 25.84744062 26 44 C26 44.99 26 45.98 26 47 C23.00051609 47.33865141 20.00055074 47.67105073 17 48 C16.16082031 48.09539063 15.32164062 48.19078125 14.45703125 48.2890625 C9.26859055 48.85214909 4.21873039 49.09664316 -1 49 C-1.14695312 48.26136719 -1.29390625 47.52273438 -1.4453125 46.76171875 C-3.55646427 37.21300354 -7.45212744 25.18203539 -16.140625 19.6328125 C-24.1719798 15.04716798 -30.73658434 14.25030006 -40 15 C-43.04047394 15.90837689 -45.40998711 17.18889074 -48 19 C-48.86625 19.53625 -49.7325 20.0725 -50.625 20.625 C-61.91569502 31.91569502 -65.20461922 48.81974577 -65.2756958 64.16668701 C-65.2741799 65.65165961 -65.26914817 67.13663245 -65.26074219 68.62158203 C-65.25005299 70.86388395 -65.26067218 73.10537908 -65.2734375 75.34765625 C-65.28694564 86.78738954 -64.6565484 97.72431171 -59.8125 108.25 C-59.50352783 108.9303833 -59.19455566 109.6107666 -58.8762207 110.31176758 C-55.01411257 118.4838355 -50.28578247 124.38296035 -41.87109375 128.1484375 C-34.47275433 130.3427749 -26.71466149 130.19285823 -19.625 127.0625 C-9.84824101 121.33129646 -4.45811235 112.15938864 -1.25390625 101.5234375 C-0.78536417 99.69450771 -0.38367116 97.84859739 0 96 C8.78607656 96.49389188 17.35001785 97.36822681 26 99 C24.99717848 113.64119421 18.45967829 127.61476782 8 138 C-6.22661511 150.11584135 -22.40469698 154.3760142 -41 153 C-56.79406549 151.09900917 -68.76337097 144.95259341 -78.96875 132.62109375 C-95.88732203 109.50646574 -100.0222256 79.1711429 -95.8125 51.3125 C-92.65775252 32.33615789 -84.23607941 13.47308931 -68.5625 1.625 C-48.11378163 -12.33518273 -21.12008591 -13.27961566 0 0 Z " fill="#020280" transform="translate(330,663)"/>
<path d="M0 0 C1.95969727 -0.0309375 1.95969727 -0.0309375 3.95898438 -0.0625 C11.57514735 -0.09347575 17.35669012 -0.07028757 23.5625 4.6875 C25.88639163 7.91512727 25.81172588 11.50244236 25.80775452 15.36260986 C25.80912918 16.39463531 25.81050385 17.42666077 25.81192017 18.48995972 C25.80652725 20.17957321 25.80652725 20.17957321 25.80102539 21.90332031 C25.80117142 23.09384003 25.80131744 24.28435974 25.8014679 25.51095581 C25.80089086 28.77096274 25.79587765 32.03092667 25.78889394 35.29092503 C25.78264008 38.699543 25.78205499 42.10816184 25.78086853 45.51678467 C25.77776121 51.96944884 25.76955589 58.42209605 25.75951904 64.87475276 C25.74833931 72.22174087 25.74284276 79.56872978 25.73782361 86.91572428 C25.72737279 102.02715896 25.70978493 117.13857779 25.6875 132.25 C26.37352798 132.24333817 27.05955597 132.23667633 27.76637268 132.22981262 C34.92045393 132.163331 42.0744471 132.11814592 49.22875977 132.08520508 C51.89723072 132.07183639 54.56521718 132.04968395 57.23364258 132.02368164 C61.07379252 131.98720415 64.91361438 131.97025141 68.75390625 131.95703125 C70.53711021 131.93380547 70.53711021 131.93380547 72.3563385 131.91011047 C79.4295434 131.90868027 84.86126948 132.18901559 90.5625 136.75 C94.10426824 141.47235766 92.91198564 148.37527799 92.92773438 153.96411133 C92.93741783 156.04484373 92.96844366 158.12457832 93 160.20507812 C93.00653307 161.53905667 93.01178235 162.87304224 93.015625 164.20703125 C93.0249707 165.41335205 93.03431641 166.61967285 93.04394531 167.86254883 C92.63239295 171.77370573 91.94223691 174.01865074 89.6875 177.25 C84.05641253 180.32709091 79.34604782 180.68191207 73.0078125 180.63818359 C72.06218445 180.64344055 71.1165564 180.64869751 70.14227295 180.65411377 C67.0321781 180.66726301 63.92259961 180.65859354 60.8125 180.6484375 C58.64208885 180.65045969 56.47167836 180.65337234 54.30126953 180.65713501 C49.75872307 180.6615515 45.21635393 180.65514893 40.67382812 180.64111328 C34.85993332 180.62402197 29.04645404 180.63386675 23.23257446 180.65183067 C18.75265387 180.66268666 14.27283131 180.6592138 9.79290771 180.6514473 C7.64955597 180.64945032 5.50619525 180.65188687 3.362854 180.65888596 C0.3640597 180.66653018 -2.63406768 180.65485429 -5.6328125 180.63818359 C-6.51302063 180.64425629 -7.39322876 180.65032898 -8.30010986 180.65658569 C-13.69973058 180.60115759 -17.63481656 180.05847173 -22.3125 177.25 C-25.03461092 172.86503779 -25.68855515 169.53084834 -25.69345093 164.41197205 C-25.6981309 163.74883784 -25.70281087 163.08570364 -25.70763266 162.40247446 C-25.71954119 160.19380907 -25.71014227 157.98576894 -25.70068359 155.77709961 C-25.70475112 154.1882847 -25.71009401 152.59947263 -25.71661377 151.01066589 C-25.73027062 146.70496689 -25.72499579 142.39948394 -25.71547651 138.09378123 C-25.70787279 133.58510306 -25.71492739 129.07644319 -25.71963501 124.56776428 C-25.72508992 116.99786055 -25.7179073 109.42804468 -25.70361328 101.8581543 C-25.68728137 93.1080115 -25.69258024 84.35807835 -25.7090925 75.60794061 C-25.72270786 68.09186189 -25.72462696 60.57584627 -25.71677649 53.0597592 C-25.71210101 48.57213724 -25.71147181 44.08461383 -25.72138596 39.59699821 C-25.73005429 35.3788363 -25.72403624 31.16094469 -25.70670319 26.94281197 C-25.70273788 25.39524408 -25.70387317 23.84765342 -25.71049118 22.3000946 C-25.7186952 20.18677116 -25.70840018 18.07431271 -25.69345093 15.96104431 C-25.69231985 14.77880248 -25.69118877 13.59656065 -25.69002342 12.37849331 C-25.16648316 8.03997523 -23.59285053 5.40644564 -20.375 2.5 C-14.3881809 -1.12837521 -6.73968808 0.02636553 0 0 Z M-15.3125 11.25 C-15.3125 63.39 -15.3125 115.53 -15.3125 169.25 C16.6975 169.25 48.7075 169.25 81.6875 169.25 C81.6875 160.67 81.6875 152.09 81.6875 143.25 C59.5775 143.25 37.4675 143.25 14.6875 143.25 C14.6875 99.69 14.6875 56.13 14.6875 11.25 C4.7875 11.25 -5.1125 11.25 -15.3125 11.25 Z " fill="#040482" transform="translate(564.3125,644.75)"/>
<path d="M0 0 C1.95969727 -0.0309375 1.95969727 -0.0309375 3.95898438 -0.0625 C16.04935455 -0.11167283 16.04935455 -0.11167283 21.6875 3.25 C25.0527414 6.83959082 25.81161488 10.13689153 25.82121277 14.95832825 C25.82761024 16.41084991 25.82761024 16.41084991 25.83413696 17.89271545 C25.83345718 19.48459938 25.83345718 19.48459938 25.83276367 21.10864258 C25.83612228 22.22776031 25.8394809 23.34687805 25.84294128 24.49990845 C25.85246977 28.21479391 25.85439594 31.92963431 25.85546875 35.64453125 C25.85868211 38.22987385 25.86204624 40.81521626 25.86555481 43.40055847 C25.87155229 48.83206683 25.87343708 54.26355734 25.87280273 59.69506836 C25.87220482 65.94159421 25.88269818 72.1880329 25.8985464 78.43453676 C25.91329917 84.46744632 25.9167879 90.50030939 25.91619301 96.53323936 C25.91736729 99.08668051 25.92175784 101.64012241 25.92952538 104.19355202 C26.05823123 150.91041518 26.05823123 150.91041518 10.6875 167.25 C4.07563727 173.18963997 -2.79890314 176.8267021 -11.3125 179.25 C-12.0034375 179.46269531 -12.694375 179.67539062 -13.40625 179.89453125 C-28.0939032 183.82065393 -49.32411369 184.33081909 -63.3125 178.25 C-66.9979123 174.82783144 -68.13556197 171.82686116 -68.47363281 166.90332031 C-68.51931081 164.10209036 -68.54775489 161.30157088 -68.5625 158.5 C-68.583125 157.53578125 -68.60375 156.5715625 -68.625 155.578125 C-68.65839254 149.43389822 -68.15014378 144.75256142 -65.3125 139.25 C-61.31758872 136.13147041 -58.10352851 135.85194366 -53.11328125 135.7734375 C-52.09889229 135.75006821 -52.09889229 135.75006821 -51.06401062 135.72622681 C-48.91768448 135.67894988 -46.77167991 135.65101744 -44.625 135.625 C-42.46783408 135.58847452 -40.31084912 135.54787062 -38.15385437 135.50234985 C-36.20468511 135.46279249 -34.25528836 135.43496492 -32.3059082 135.40771484 C-29.38718808 135.45381671 -29.38718808 135.45381671 -27.3125 134.25 C-26.33580773 131.31992318 -26.18340357 129.43238389 -26.17446899 126.38067627 C-26.16901566 125.37696991 -26.16356232 124.37326355 -26.15794373 123.33914185 C-26.15638023 121.68868362 -26.15638023 121.68868362 -26.15478516 120.00488281 C-26.14970444 118.84526031 -26.14462372 117.68563782 -26.13938904 116.49087524 C-26.12867608 113.96834319 -26.12005954 111.44580158 -26.11326981 108.92325592 C-26.10149568 104.93046437 -26.08232799 100.93775087 -26.06015015 96.94500732 C-25.99827153 85.5909818 -25.94425538 74.23696101 -25.91113281 62.8828125 C-25.89275922 56.61198101 -25.86378821 50.34129072 -25.8231281 44.07056308 C-25.80210197 40.75430198 -25.78829559 37.43825677 -25.78432083 34.12192535 C-25.77941288 30.41863841 -25.75625597 26.71587575 -25.72900391 23.01269531 C-25.73201004 21.92048676 -25.73501617 20.8282782 -25.7381134 19.70297241 C-25.67338882 13.78080512 -25.19907922 9.46558094 -22.3125 4.25 C-16.37752125 -1.49352782 -7.67072982 0.03000774 0 0 Z M-14.3125 11.25 C-14.3218457 14.83278809 -14.33119141 18.41557617 -14.34082031 22.10693359 C-14.37462912 33.96140996 -14.43000037 45.8157192 -14.49640274 57.67004967 C-14.53612785 64.85539474 -14.56855331 72.04063133 -14.58349609 79.22607422 C-14.59654667 85.49256102 -14.62359744 91.75880847 -14.66711307 98.02516043 C-14.68965219 101.33992661 -14.70332628 104.65433617 -14.70438385 107.96918869 C-14.70675755 111.67952842 -14.73387266 115.3889417 -14.76660156 119.09912109 C-14.75905602 120.72832489 -14.75905602 120.72832489 -14.75135803 122.39044189 C-14.84491389 129.2725371 -15.85721765 135.20263917 -19.3125 141.25 C-24.61750548 145.78135885 -29.04228541 146.35049317 -35.828125 146.56640625 C-37.70371094 146.62924805 -37.70371094 146.62924805 -39.6171875 146.69335938 C-40.91914063 146.73267578 -42.22109375 146.77199219 -43.5625 146.8125 C-45.53863281 146.87727539 -45.53863281 146.87727539 -47.5546875 146.94335938 C-50.80716854 147.04941854 -54.05982053 147.15021153 -57.3125 147.25 C-57.3125 154.51 -57.3125 161.77 -57.3125 169.25 C-50.531478 171.02287314 -50.531478 171.02287314 -43.95703125 171.515625 C-42.53861938 171.52227173 -42.53861938 171.52227173 -41.09155273 171.52905273 C-40.11259033 171.51946533 -39.13362793 171.50987793 -38.125 171.5 C-37.10414307 171.49105713 -36.08328613 171.48211426 -35.03149414 171.47290039 C-20.98028101 171.25727789 -8.19383478 169.68132094 2.984375 160.328125 C13.17004592 149.44599795 15.17045329 133.98522 15.02807617 119.66674805 C15.02851425 118.48466766 15.02895233 117.30258728 15.02940369 116.08468628 C15.02733487 112.22685486 15.00409411 108.36947305 14.98046875 104.51171875 C14.97318461 101.81745143 14.9704513 99.12318449 14.96760559 96.4289093 C14.95833652 90.09334996 14.9337936 83.75794868 14.90355712 77.42245847 C14.86985157 70.20103508 14.85348679 62.97960355 14.83847082 55.75812089 C14.80723842 40.92198232 14.75229198 26.08603466 14.6875 11.25 C5.1175 11.25 -4.4525 11.25 -14.3125 11.25 Z " fill="#050582" transform="translate(193.3125,644.75)"/>
<path d="M0 0 C28.29276774 -0.7380722 54.71653184 5.25220676 80 18 C80.77327637 18.38671875 81.54655273 18.7734375 82.34326172 19.171875 C102.5267213 29.41511945 127.31995319 45.96736158 139 66 C138.76865336 68.65340436 138.2514162 69.69392811 136.5625 71.75 C135 73 135 73 133 73 C132.67 73.99 132.34 74.98 132 76 C131.34 76 130.68 76 130 76 C129.77183594 76.55171875 129.54367187 77.1034375 129.30859375 77.671875 C127.62097934 80.67431736 125.49040986 82.8113945 123.0625 85.25 C122.18722656 86.14203125 121.31195313 87.0340625 120.41015625 87.953125 C118 90 118 90 115 90 C113.703125 88.55859375 113.703125 88.55859375 112.25 86.4375 C91.69654995 59.09023173 58.85148949 39.91046085 25 35 C16.68048459 34.07602786 8.35433628 33.55083536 0 33 C0 22.11 0 11.22 0 0 Z " fill="#000080" transform="translate(383,176)"/>
<path d="M0 0 C16.94724313 12.01191346 25.64745208 27.87907756 30.125 47.9375 C30.56820298 54.25314246 30.56820298 54.25314246 29.0625 56.578125 C26.21663599 58.57481991 23.24737763 58.77843787 19.875 59.125 C19.1735083 59.20250488 18.4720166 59.28000977 17.74926758 59.35986328 C12.77875646 59.86575358 7.80732411 60.19707339 2.8125 60.3125 C1.59949219 60.34085938 0.38648438 60.36921875 -0.86328125 60.3984375 C-3.875 59.9375 -3.875 59.9375 -5.7109375 58.23046875 C-6.96197609 55.76617462 -7.60311605 53.5742973 -8.1875 50.875 C-9.54424496 45.46978612 -11.76823052 41.04560299 -14.5703125 36.25 C-15.875 33.9375 -15.875 33.9375 -16.875 30.9375 C-18.62367483 29.85318906 -18.62367483 29.85318906 -20.875 28.9375 C-21.679375 28.40125 -22.48375 27.865 -23.3125 27.3125 C-29.32759127 24.99088582 -36.41344403 24.41081069 -42.42578125 27.0625 C-44.54992582 28.38668966 -44.54992582 28.38668966 -46.38671875 29.84375 C-47.875 30.9375 -47.875 30.9375 -49.875 30.9375 C-50.14441406 31.48792969 -50.41382813 32.03835938 -50.69140625 32.60546875 C-51.5166373 34.23141903 -52.38210836 35.83729952 -53.27734375 37.42578125 C-63.67804745 56.55990028 -64.05111868 83.12713148 -58.78515625 104.01953125 C-58.48480469 104.98246094 -58.18445313 105.94539062 -57.875 106.9375 C-57.58496094 107.86949219 -57.29492188 108.80148437 -56.99609375 109.76171875 C-54.00727207 118.12791834 -49.56331129 125.06020451 -41.4296875 129.0859375 C-34.8983717 131.26304277 -28.26324196 131.03170859 -22.0625 128 C-13.90140957 122.7567586 -9.4124131 114.76800677 -7.328125 105.5078125 C-6.99951395 103.94939948 -6.68893255 102.38699792 -6.40234375 100.8203125 C-5.875 98.9375 -5.875 98.9375 -3.875 96.9375 C2.58374289 96.65255546 8.94646407 97.13522284 15.375 97.75 C16.68210937 97.85538086 16.68210937 97.85538086 18.015625 97.96289062 C22.7723079 98.41608069 26.19530805 98.97399264 30.125 101.9375 C29.68621062 120.76555329 21.91230758 136.55866036 8.56298828 149.61132812 C-5.55638594 162.63279515 -24.98324918 164.79695726 -43.3671875 164.11230469 C-58.65030133 163.04700976 -71.03582648 155.7569373 -81.40625 144.8203125 C-92.03882894 132.40442127 -97.61638172 117.74143899 -100.875 101.9375 C-101.05450195 101.1237793 -101.23400391 100.31005859 -101.41894531 99.47167969 C-102.93136468 92.09225517 -103.17573832 84.95522833 -103.125 77.4375 C-103.13273438 76.29152344 -103.14046875 75.14554688 -103.1484375 73.96484375 C-103.13198916 66.73579643 -102.45749725 59.98898376 -100.875 52.9375 C-100.72369629 52.24978516 -100.57239258 51.56207031 -100.41650391 50.85351562 C-95.6246406 30.14064623 -85.45463586 11.37796468 -67.11474609 -0.14526367 C-62.1852942 -3.08143273 -57.43179424 -4.81244941 -51.875 -6.0625 C-50.82828125 -6.40539062 -49.7815625 -6.74828125 -48.703125 -7.1015625 C-32.85195525 -11.0805296 -14.08714874 -8.21079526 0 0 Z M-78.86328125 16.265625 C-88.599335 28.89413743 -94.06916194 42.35131288 -96.875 57.9375 C-97.02582031 58.75347656 -97.17664063 59.56945312 -97.33203125 60.41015625 C-101.10926344 86.54860303 -95.84473603 116.69805576 -80.12890625 138.0234375 C-71.31329758 149.42108753 -59.58581915 156.49560144 -45.23046875 158.58203125 C-27.694551 160.43973616 -10.81367331 157.87224905 3.546875 147.125 C16.45221927 136.38498195 23.55288342 121.49893503 25.125 104.9375 C16.47501785 103.30572681 7.91107656 102.43139188 -0.875 101.9375 C-1.09414063 102.75992188 -1.31328125 103.58234375 -1.5390625 104.4296875 C-5.23655415 117.44606055 -10.3491656 126.65148267 -22 133.875 C-29.30598661 136.53324227 -38.29055836 136.11562649 -45.3125 132.9375 C-54.14577895 127.75337891 -58.17363969 120.21169493 -61.875 110.9375 C-62.2037915 110.16728516 -62.53258301 109.39707031 -62.87133789 108.60351562 C-66.60414183 98.6881133 -66.27844273 87.70327816 -66.25 77.25 C-66.24945618 76.49870819 -66.24891235 75.74741638 -66.24835205 74.97335815 C-66.19583956 59.21142044 -64.80885445 45.46032887 -55.875 31.9375 C-55.25625 30.98875 -54.6375 30.04 -54 29.0625 C-48.27163037 23.33413037 -42.30523676 20.79172059 -34.25 20.625 C-27.86146754 20.67115039 -23.30707026 21.6036543 -17.875 24.9375 C-16.988125 25.47375 -16.10125 26.01 -15.1875 26.5625 C-7.8093564 34.14005288 -3.73932045 44.65604958 -1.875 54.9375 C11.65379287 54.28991789 11.65379287 54.28991789 25.125 52.9375 C22.45065361 35.06160572 16.26693427 19.77873153 2.125 7.9375 C-22.52760652 -9.46650431 -58.74298976 -7.2936947 -78.86328125 16.265625 Z " fill="#EFEFF6" transform="translate(330.875,657.0625)"/>
<path d="M0 0 C8.3792685 5.70473118 13.80771116 12.33939552 16.9921875 22.07421875 C19.23266081 34.44254592 16.68216185 45.43513164 10.03515625 55.87109375 C5.36354763 62.38936178 -0.62147377 67.29348236 -7.625 71.1875 C-8.285 71.1875 -8.945 71.1875 -9.625 71.1875 C-4.23964099 77.9126947 1.30906185 84.38449111 7.1328125 90.734375 C14.375 98.65788328 14.375 98.65788328 14.375 101.1875 C15.035 101.1875 15.695 101.1875 16.375 101.1875 C16.63539063 100.506875 16.89578125 99.82625 17.1640625 99.125 C18.29241533 96.38783443 19.54187483 93.73601089 20.8371582 91.07470703 C25.22020967 82.0131965 28.4789494 72.90331636 30.4375 63 C31.375 59.1875 31.375 59.1875 34.375 57.1875 C36.53222656 57.2199707 36.53222656 57.2199707 39.015625 57.61328125 C39.92183594 57.75056641 40.82804688 57.88785156 41.76171875 58.02929688 C42.70660156 58.18462891 43.65148437 58.33996094 44.625 58.5 C45.55441406 58.64373047 46.48382812 58.78746094 47.44140625 58.93554688 C49.25691568 59.21673257 51.07142514 59.50446698 52.88476562 59.79931641 C55.06155814 60.13863995 57.23431931 60.41124265 59.421875 60.66796875 C62.375 61.1875 62.375 61.1875 64.375 63.1875 C64.81528371 69.25807848 63.8538927 74.47629574 62.25 80.3125 C62.0233667 81.14434814 61.7967334 81.97619629 61.56323242 82.83325195 C57.47308456 97.33925231 50.79163853 113.82308622 39.375 124.1875 C40.89578773 128.44570565 43.50715172 130.02683993 47.375 132.1875 C51.18533426 132.8053052 51.18533426 132.8053052 55.125 132.8125 C62.17982897 132.99232897 62.17982897 132.99232897 64.375 135.1875 C64.83603073 139.64904808 64.69898794 144.14240638 64.6875 148.625 C64.70361328 149.87861328 64.71972656 151.13222656 64.73632812 152.42382812 C64.73697266 153.62330078 64.73761719 154.82277344 64.73828125 156.05859375 C64.74126221 157.16130615 64.74424316 158.26401855 64.74731445 159.40014648 C64.375 162.1875 64.375 162.1875 63.10620117 164.04785156 C61.00305993 165.43234787 59.81868254 165.56129948 57.3125 165.55078125 C56.12491089 165.55223145 56.12491089 165.55223145 54.91333008 165.55371094 C54.07568115 165.53598633 53.23803223 165.51826172 52.375 165.5 C51.51865967 165.4887207 50.66231934 165.47744141 49.7800293 165.46582031 C34.25152689 165.13089471 25.18234144 161.15599318 13.375 151.1875 C9.93794939 152.49747023 6.65805512 154.01807524 3.36303711 155.64990234 C-17.04116 165.64477704 -41.09781407 168.93517714 -63.11328125 162.44140625 C-73.37507947 158.77729365 -80.97639744 153.95199048 -88.625 146.1875 C-89.74261719 145.06794922 -89.74261719 145.06794922 -90.8828125 143.92578125 C-95.42965813 139.11887618 -98.50496893 134.46363157 -100.625 128.1875 C-100.98078125 127.15367187 -101.3365625 126.11984375 -101.703125 125.0546875 C-104.42957261 113.61747085 -104.21741918 99.65580965 -98.625 89.1875 C-98.2125 88.34316406 -97.8 87.49882813 -97.375 86.62890625 C-90.89441599 74.53304348 -79.4369595 67.43307358 -67.625 61.1875 C-66.965 61.1875 -66.305 61.1875 -65.625 61.1875 C-66.33076172 60.06214844 -66.33076172 60.06214844 -67.05078125 58.9140625 C-74.32968302 46.94833165 -78.31393302 35.47494198 -74.93359375 21.28515625 C-70.82819706 10.13702882 -62.79027186 1.88745892 -52.0625 -3.125 C-36.20693699 -9.95556418 -15.04078857 -8.48746465 0 0 Z M-64.625 12.1875 C-70.48117956 20.75936905 -71.99004885 29.52934459 -70.1640625 39.7734375 C-68.4267117 46.25273402 -65.29184177 51.61543235 -61.625 57.1875 C-60.99271484 58.15816406 -60.99271484 58.15816406 -60.34765625 59.1484375 C-59.45362218 60.50380587 -58.54186313 61.84746928 -57.625 63.1875 C-58.86830078 63.55488281 -58.86830078 63.55488281 -60.13671875 63.9296875 C-75.85974161 69.59913135 -87.61770743 78.78203216 -95.09375 93.69921875 C-99.29114557 103.26114284 -99.2611233 117.08304283 -95.65625 126.9296875 C-89.3414258 140.75532532 -79.26688936 150.7111595 -64.953125 156.21484375 C-62.52517676 156.97263505 -60.09878572 157.59909536 -57.625 158.1875 C-56.64080078 158.49300781 -56.64080078 158.49300781 -55.63671875 158.8046875 C-31.70005753 165.59061476 -7.17933722 155.64448188 13.375 144.1875 C14.12523437 144.85136719 14.87546875 145.51523437 15.6484375 146.19921875 C26.61057587 155.72423104 35.49333691 160.39135017 50.1875 160.25 C53.219375 160.229375 56.25125 160.20875 59.375 160.1875 C59.375 152.9275 59.375 145.6675 59.375 138.1875 C57.415625 138.14625 55.45625 138.105 53.4375 138.0625 C45.76151565 137.46946965 41.00499182 134.97123265 35.71484375 129.45703125 C34.54243962 128.08215064 33.44802194 126.64127167 32.375 125.1875 C33.08462891 124.36572266 33.08462891 124.36572266 33.80859375 123.52734375 C46.46648369 108.35268038 59.375 86.58555663 59.375 66.1875 C56.68775296 65.70687876 54.00021967 65.22796504 51.3125 64.75 C50.18424805 64.54793945 50.18424805 64.54793945 49.03320312 64.34179688 C44.48974542 63.5353823 39.94695693 62.81288056 35.375 62.1875 C35.22804688 63.09628906 35.08109375 64.00507812 34.9296875 64.94140625 C32.20547426 80.20639426 27.02009424 97.33061083 15.375 108.1875 C9.25027622 101.62774911 3.3353917 94.99891028 -2.28515625 87.99609375 C-5.38142726 84.27953473 -8.65893275 80.74693022 -11.99609375 77.24609375 C-14.37590157 74.71408892 -16.2901424 72.41404152 -17.625 69.1875 C-16.59503906 68.94257812 -15.56507813 68.69765625 -14.50390625 68.4453125 C-5.4551748 65.84565179 2.7294063 58.25941198 7.375 50.1875 C12.12008051 41.05053267 14.22869483 31.69006243 11.25 21.5625 C7.58365524 11.93834502 0.95694878 6.42672951 -8.109375 1.96484375 C-13.60713317 -0.416949 -18.65537786 -1.57251519 -24.625 -1.8125 C-25.46675781 -1.8640625 -26.30851562 -1.915625 -27.17578125 -1.96875 C-41.07160706 -2.4513836 -55.09153439 1.63428558 -64.625 12.1875 Z " fill="#F0F0F7" transform="translate(467.625,655.8125)"/>
<path d="M0 0 C0.08636719 0.79921875 0.17273438 1.5984375 0.26171875 2.421875 C2.02508503 16.20525177 7.29559833 30.60101317 18 40 C18.44214844 40.46792969 18.88429688 40.93585938 19.33984375 41.41796875 C27.08194013 49.08126516 39.45950298 52.56153217 50 54 C49.67 54.99 49.34 55.98 49 57 C46.52127995 57.73879125 44.15174324 58.30646443 41.625 58.8125 C33.53310475 60.62676146 25.81094098 63.16164218 19.828125 69.1875 C18 71 18 71 16 71 C15.7525 71.556875 15.505 72.11375 15.25 72.6875 C14 75 14 75 12.11328125 77.28515625 C4.75490216 86.73815711 0.93653803 98.19962077 0 110 C-1.32 109.67 -2.64 109.34 -4 109 C-4.24234375 107.94941406 -4.4846875 106.89882813 -4.734375 105.81640625 C-7.66466865 93.4121864 -11.25996027 78.91614997 -22 71 C-22 70.34 -22 69.68 -22 69 C-22.66 68.773125 -23.32 68.54625 -24 68.3125 C-26.45862265 67.23685259 -28.25401919 66.18071914 -30.4375 64.6875 C-36.12639033 61.00451897 -42.60661442 59.11017642 -49 57 C-49 56.01 -49 55.02 -49 54 C-48.10539062 53.70867187 -47.21078125 53.41734375 -46.2890625 53.1171875 C-30.43705438 48.03164218 -30.43705438 48.03164218 -19 37 C-18.34 37 -17.68 37 -17 37 C-16.7525 36.50113281 -16.505 36.00226563 -16.25 35.48828125 C-15.21984005 33.43761909 -14.17539371 31.39577582 -13.125 29.35546875 C-12.41650149 27.96623006 -11.70817301 26.57690465 -11 25.1875 C-10.64421875 24.50107422 -10.2884375 23.81464844 -9.921875 23.10742188 C-6.5646024 16.4868302 -4.84561639 10.22284177 -4.34375 2.8203125 C-4.2303125 2.21960938 -4.116875 1.61890625 -4 1 C-2 0 -2 0 0 0 Z " fill="#509C77" transform="translate(543,305)"/>
<path d="M0 0 C3.81231701 0.56203467 5.5072818 2.1662129 8.15234375 4.89453125 C8.92900391 5.68537109 9.70566406 6.47621094 10.50585938 7.29101562 C11.70952148 8.53915039 11.70952148 8.53915039 12.9375 9.8125 C14.52763205 11.44626763 16.12001489 13.07784817 17.71484375 14.70703125 C18.41730225 15.4338208 19.11976074 16.16061035 19.84350586 16.90942383 C22.11434487 19.11084967 24.50231211 21.06233181 27 23 C19.9048708 38.71064323 2.80725854 52.24045888 -11 62 C-11.5676709 62.40669922 -12.1353418 62.81339844 -12.72021484 63.23242188 C-20.1468067 68.51446945 -27.82948595 73.15706589 -35.875 77.4375 C-36.64730957 77.85064453 -37.41961914 78.26378906 -38.21533203 78.68945312 C-43.33472553 81.34631186 -48.47849984 83.33864195 -54 85 C-54.198124 79.67998972 -54.34308619 74.36213454 -54.43945312 69.03930664 C-54.47962739 67.23000686 -54.53418125 65.42096592 -54.60351562 63.61254883 C-54.70085601 61.00797789 -54.74597932 58.40684208 -54.78125 55.80078125 C-54.82254028 54.99538406 -54.86383057 54.18998688 -54.90637207 53.36018372 C-54.90825566 50.98979199 -54.81869732 49.22824193 -54 47 C-51.57852398 44.77487951 -48.94428898 43.42103859 -46 42 C-25.42199243 29.75222529 -25.42199243 29.75222529 -10 12 C-9.34 12 -8.68 12 -8 12 C-7.73445313 11.42765625 -7.46890625 10.8553125 -7.1953125 10.265625 C-5.94323109 7.8923988 -4.5063648 5.87786714 -2.875 3.75 C-2.33617187 3.04359375 -1.79734375 2.3371875 -1.2421875 1.609375 C-0.83226562 1.07828125 -0.42234375 0.5471875 0 0 Z " fill="#000080" transform="translate(500,441)"/>
<path d="M0 0 C1.04269043 -0.00218285 1.04269043 -0.00218285 2.10644531 -0.00440979 C3.57230838 -0.00275395 5.03818939 0.0087724 6.50390625 0.02954102 C8.74294147 0.05850245 10.9796079 0.0501448 13.21875 0.03710938 C14.6458448 0.04334731 16.07293214 0.05173869 17.5 0.0625 C19.44132813 0.0771228 19.44132813 0.0771228 21.421875 0.09204102 C25.02867259 0.52992614 26.20984658 0.98197919 28.75 3.49609375 C29.24219131 5.87987804 29.24219131 5.87987804 29.23101807 8.75419617 C29.23651672 9.84374603 29.24201538 10.9332959 29.24768066 12.05586243 C29.23329956 13.25132187 29.21891846 14.44678131 29.20410156 15.6784668 C29.20468567 16.93711548 29.20526978 18.19576416 29.20587158 19.49255371 C29.20702049 22.94497315 29.18348356 26.39683806 29.15557575 29.84912848 C29.13059099 33.45658551 29.12822243 37.06405489 29.12347412 40.67158508 C29.11103567 47.50334804 29.07820253 54.33485533 29.03807616 61.16650563 C28.99338531 68.94390017 28.97137822 76.72130683 28.95129442 84.49879777 C28.90947046 100.49804456 28.83910179 116.4970362 28.75 132.49609375 C29.92057953 132.48943192 29.92057953 132.48943192 31.11480713 132.4826355 C38.47162594 132.44255022 45.82839174 132.41210502 53.18529129 132.39246941 C56.96748771 132.38203517 60.74959383 132.36788259 64.53173828 132.34521484 C68.18217608 132.32347354 71.83252705 132.31152241 75.4830246 132.30633926 C76.87527584 132.30264581 78.26752238 132.29543341 79.65973663 132.28463364 C81.61067567 132.27010249 83.56170218 132.26927669 85.51269531 132.26904297 C87.17815399 132.26238113 87.17815399 132.26238113 88.8772583 132.25558472 C91.73630011 132.49494678 93.37585827 132.91944013 95.75 134.49609375 C97.96473075 138.92555525 96.97991139 144.94463985 97 149.80859375 C97.020625 151.04544922 97.04125 152.28230469 97.0625 153.55664062 C97.07023438 155.34618164 97.07023438 155.34618164 97.078125 157.171875 C97.0874707 158.26411377 97.09681641 159.35635254 97.10644531 160.48168945 C96.67263108 164.15039107 96.21434771 165.71110043 93.75 168.49609375 C90.54914039 169.2788043 87.37473154 169.17845824 84.09375 169.14306641 C83.1032666 169.151828 82.1127832 169.1605896 81.09228516 169.1696167 C77.81108068 169.19166269 74.53121869 169.17703883 71.25 169.16015625 C68.97460674 169.16352287 66.69921522 169.16837419 64.42382812 169.1746521 C59.65216979 169.18203052 54.88097904 169.17128622 50.109375 169.14794922 C43.9853392 169.11946155 37.8623989 169.13586024 31.73840332 169.16581154 C27.03897815 169.18385797 22.33981378 169.17813855 17.64038086 169.16517258 C15.38207877 169.16183125 13.12375319 169.16595103 10.86547852 169.17757034 C7.71176214 169.19023486 4.55983285 169.1709623 1.40625 169.14306641 C-0.00116455 169.15824814 -0.00116455 169.15824814 -1.43701172 169.17373657 C-2.29504395 169.15963745 -3.15307617 169.14553833 -4.03710938 169.13101196 C-4.78263062 169.12912683 -5.52815186 169.12724171 -6.29626465 169.12529945 C-8.25 168.49609375 -8.25 168.49609375 -9.98907566 166.36957455 C-11.47366285 162.98639552 -11.62996625 160.57657654 -11.63768005 156.88548279 C-11.64306559 156.2347481 -11.64845113 155.58401342 -11.65399987 154.9135595 C-11.66826638 152.74092535 -11.66117945 150.56890161 -11.65405273 148.39624023 C-11.65975691 146.83550528 -11.66672135 145.2747745 -11.67485046 143.71405029 C-11.69278903 139.48068154 -11.69161255 135.24751997 -11.68590808 131.01412463 C-11.68281813 127.48009881 -11.68890631 123.94611289 -11.69494683 120.41209275 C-11.70899188 112.07685944 -11.70743011 103.74172864 -11.69604492 95.40649414 C-11.68455519 86.8045641 -11.69865367 78.20294553 -11.7254414 69.60105652 C-11.74758004 62.21579396 -11.75424019 54.83062931 -11.74836498 47.44533592 C-11.74499081 43.03426119 -11.74744124 38.62338626 -11.76461601 34.2123394 C-11.78005462 30.06636156 -11.77616433 25.92084644 -11.75731087 21.77488708 C-11.75361681 20.25269727 -11.75675724 18.73047339 -11.76719666 17.2083149 C-11.78035333 15.13157991 -11.76890962 13.05638906 -11.75120544 10.97972107 C-11.75099616 9.81738166 -11.75078688 8.65504225 -11.75057125 7.45748043 C-10.59139261 0.59976299 -6.2149335 -0.00889837 0 0 Z M-6.25 5.49609375 C-6.25 57.63609375 -6.25 109.77609375 -6.25 163.49609375 C25.76 163.49609375 57.77 163.49609375 90.75 163.49609375 C90.75 154.91609375 90.75 146.33609375 90.75 137.49609375 C68.64 137.49609375 46.53 137.49609375 23.75 137.49609375 C23.75 93.93609375 23.75 50.37609375 23.75 5.49609375 C13.85 5.49609375 3.95 5.49609375 -6.25 5.49609375 Z " fill="#F3F3F8" transform="translate(555.25,650.50390625)"/>
<path d="M0 0 C1.04481285 -0.00430527 1.04481285 -0.00430527 2.11073303 -0.00869751 C3.58253798 -0.01073701 5.0543701 -0.00521502 6.52612305 0.00732422 C8.77389506 0.02335718 11.01986259 0.00748618 13.26757812 -0.01171875 C14.69922271 -0.00973582 16.13086617 -0.00589111 17.5625 0 C18.8630835 0.00338379 20.16366699 0.00676758 21.50366211 0.01025391 C25.12515293 0.43065037 26.28985801 0.89094619 28.84765625 3.3984375 C29.35381413 5.66947269 29.35381413 5.66947269 29.36231995 8.38356018 C29.3750444 9.41344055 29.38776886 10.44332092 29.40087891 11.50440979 C29.39435303 12.63418747 29.38782715 13.76396515 29.38110352 14.92797852 C29.39402687 16.71406021 29.39402687 16.71406021 29.4072113 18.53622437 C29.42605768 21.80801579 29.42674886 25.0791714 29.41788983 28.35098767 C29.41277339 31.09327707 29.42008021 33.83547624 29.42736191 36.57775635 C29.44438702 43.06583368 29.44078071 49.55367618 29.42407227 56.04174805 C29.40726238 62.69284522 29.42282386 69.34328072 29.45529515 75.99430519 C29.48221209 81.72883099 29.48920487 87.4631537 29.48078007 93.1977362 C29.47590031 96.61114012 29.47778739 100.02414919 29.49856758 103.43750191 C29.59216089 123.73255374 29.5282273 142.79324148 14.97265625 158.41015625 C10.16938335 163.02943281 5.16293079 165.43004024 -1.15234375 167.3984375 C-2.01472656 167.6975 -2.87710938 167.9965625 -3.765625 168.3046875 C-11.57962465 170.58861703 -19.24307194 170.68143693 -27.33984375 170.7109375 C-28.44457031 170.71641602 -29.54929688 170.72189453 -30.6875 170.72753906 C-47.91459489 170.57778314 -47.91459489 170.57778314 -51.90161133 166.69482422 C-53.48923077 163.77990163 -53.54009935 161.73793422 -53.55078125 158.42578125 C-53.55464844 157.27916016 -53.55851563 156.13253906 -53.5625 154.95117188 C-53.55089844 153.75814453 -53.53929687 152.56511719 -53.52734375 151.3359375 C-53.53894531 150.13904297 -53.55054688 148.94214844 -53.5625 147.70898438 C-53.55863281 146.56365234 -53.55476562 145.41832031 -53.55078125 144.23828125 C-53.54739746 143.19019287 -53.54401367 142.14210449 -53.54052734 141.06225586 C-53.15234375 138.3984375 -53.15234375 138.3984375 -52.02685547 136.54516602 C-49.23651403 134.83818064 -47.00828837 135.1130783 -43.76171875 135.2109375 C-42.49457031 135.23414063 -41.22742188 135.25734375 -39.921875 135.28125 C-38.58198004 135.3185147 -37.24213434 135.3575922 -35.90234375 135.3984375 C-24.45279584 136.29195877 -24.45279584 136.29195877 -14.15234375 132.3984375 C-10.8924273 125.7216365 -10.72645449 119.77437359 -10.76757812 112.43041992 C-10.76220535 111.25388855 -10.75683258 110.07735718 -10.751297 108.86517334 C-10.74154507 106.32199428 -10.73856699 103.77878205 -10.74165344 101.23558617 C-10.7461383 97.21395945 -10.73254166 93.19277956 -10.71325684 89.17121887 C-10.67230641 79.91667866 -10.66084428 70.66214727 -10.64972687 61.40753174 C-10.6392185 52.90772329 -10.62248566 44.40805171 -10.58163118 35.90832788 C-10.56031155 31.26596235 -10.56213407 26.62391768 -10.56774902 21.98149109 C-10.55841398 19.56081799 -10.54824657 17.1401479 -10.53710938 14.71948242 C-10.5432576 13.61139725 -10.54940582 12.50331207 -10.55574036 11.36164856 C-10.54753769 10.35097321 -10.53933502 9.34029785 -10.53088379 8.29899597 C-10.53017128 7.41985629 -10.52945877 6.54071661 -10.52872467 5.63493633 C-9.5300515 -0.2992948 -5.17486502 0.01347538 0 0 Z M-5.15234375 5.3984375 C-5.16168945 8.98122559 -5.17103516 12.56401367 -5.18066406 16.25537109 C-5.21447287 28.10984746 -5.26984412 39.9641567 -5.33624649 51.81848717 C-5.3759716 59.00383224 -5.40839706 66.18906883 -5.42333984 73.37451172 C-5.43639042 79.64099852 -5.46344119 85.90724597 -5.50695682 92.17359793 C-5.52949594 95.48836411 -5.54317003 98.80277367 -5.5442276 102.11762619 C-5.5466013 105.82796592 -5.57371641 109.5373792 -5.60644531 113.24755859 C-5.59889977 114.87676239 -5.59889977 114.87676239 -5.59120178 116.53887939 C-5.68475764 123.4209746 -6.6970614 129.35107667 -10.15234375 135.3984375 C-15.45734923 139.92979635 -19.88212916 140.49893067 -26.66796875 140.71484375 C-28.54355469 140.77768555 -28.54355469 140.77768555 -30.45703125 140.84179688 C-31.75898438 140.88111328 -33.0609375 140.92042969 -34.40234375 140.9609375 C-36.37847656 141.02571289 -36.37847656 141.02571289 -38.39453125 141.09179688 C-41.64701229 141.19785604 -44.89966428 141.29864903 -48.15234375 141.3984375 C-48.15234375 148.6584375 -48.15234375 155.9184375 -48.15234375 163.3984375 C-41.37132175 165.17131064 -41.37132175 165.17131064 -34.796875 165.6640625 C-33.37846313 165.67070923 -33.37846313 165.67070923 -31.93139648 165.67749023 C-30.95243408 165.66790283 -29.97347168 165.65831543 -28.96484375 165.6484375 C-27.94398682 165.63949463 -26.92312988 165.63055176 -25.87133789 165.62133789 C-11.82012476 165.40571539 0.96632147 163.82975844 12.14453125 154.4765625 C22.33020217 143.59443545 24.33060954 128.1336575 24.18823242 113.81518555 C24.1886705 112.63310516 24.18910858 111.45102478 24.18955994 110.23312378 C24.18749112 106.37529236 24.16425036 102.51791055 24.140625 98.66015625 C24.13334086 95.96588893 24.13060755 93.27162199 24.12776184 90.5773468 C24.11849277 84.24178746 24.09394985 77.90638618 24.06371337 71.57089597 C24.03000782 64.34947258 24.01364304 57.12804105 23.99862707 49.90655839 C23.96739467 35.07041982 23.91244823 20.23447216 23.84765625 5.3984375 C14.27765625 5.3984375 4.70765625 5.3984375 -5.15234375 5.3984375 Z " fill="#F6F6FA" transform="translate(184.15234375,650.6015625)"/>
<path d="M0 0 C1.15039081 1.15039081 2.30044707 2.30111734 3.44921875 3.453125 C4.50916662 4.51040298 5.57454233 5.56225995 6.64453125 6.609375 C10.30871936 10.21566398 13.75937935 13.93968413 17.1171875 17.83203125 C19.2157532 20.24842951 21.354397 22.62529024 23.5 25 C27.37636051 29.29684708 31.20043587 33.63528331 35 38 C36.31213495 39.50031934 37.62462751 41.00032601 38.9375 42.5 C39.95833333 43.66666667 40.97916667 44.83333333 42 46 C36.50931295 52.73857047 26.39399007 56.56039748 18 58 C5.74203887 59.17781121 -5.10343838 58.34676386 -14.9375 50.25 C-21.33929632 43.96293122 -23.37232248 39.10892259 -23.5625 30.0625 C-23.45310191 21.61173925 -21.49356863 16.679333 -15.72265625 10.6015625 C-10.86112093 5.97224227 -6.16886529 2.62747966 0 0 Z M-8.30859375 18.23828125 C-11.50956444 21.5723177 -12.85573756 24.81847038 -13.16015625 29.421875 C-12.95049223 34.95700518 -11.62942266 38.40283143 -7.9609375 42.52734375 C-2.19350485 46.85866269 3.07953958 47.45809968 10.0625 47.3125 C10.83916016 47.31572266 11.61582031 47.31894531 12.41601562 47.32226562 C16.98816375 47.27967999 20.69969616 46.72700202 25 45 C23.4186938 41.26077871 21.06769602 38.70350263 18.3125 35.75 C17.40567271 34.77006516 16.4994254 33.78959329 15.59375 32.80859375 C14.7378125 31.88175781 13.881875 30.95492187 13 30 C11.76435445 28.60989876 10.53429646 27.21478912 9.3125 25.8125 C8.76851563 25.18988281 8.22453125 24.56726563 7.6640625 23.92578125 C6.46235327 22.53507081 5.27089013 21.13548401 4.0859375 19.73046875 C3.45945312 18.99441406 2.83296875 18.25835938 2.1875 17.5 C1.62417969 16.8296875 1.06085938 16.159375 0.48046875 15.46875 C-2.8748379 12.1400025 -5.53172595 15.75127439 -8.30859375 18.23828125 Z " fill="#F1F1F7" transform="translate(424,735)"/>
<path d="M0 0 C5.15625 -0.061875 10.3125 -0.12375 15.625 -0.1875 C17.24100098 -0.21481201 18.85700195 -0.24212402 20.52197266 -0.27026367 C22.44855713 -0.28150269 22.44855713 -0.28150269 24.4140625 -0.29296875 C25.7232666 -0.3086792 27.0324707 -0.32438965 28.38134766 -0.34057617 C33.71501508 0.16141182 36.89356433 1.99191417 40.8125 5.5625 C43.90963056 9.59177664 44.25980588 14.04006952 44 19 C42.32402028 25.01380959 39.66441338 27.27226665 35 31 C35.24234375 31.59014893 35.4846875 32.18029785 35.734375 32.78833008 C36.82832331 35.46087736 37.91424039 38.1366161 39 40.8125 C39.3815625 41.74126953 39.763125 42.67003906 40.15625 43.62695312 C40.69765625 44.9659668 40.69765625 44.9659668 41.25 46.33203125 C41.58515625 47.15421143 41.9203125 47.9763916 42.265625 48.82348633 C43 51 43 51 43 54 C39.37 54 35.74 54 32 54 C30.66249352 50.7099729 29.3298307 47.41812805 28 44.125 C27.6184375 43.18785156 27.236875 42.25070312 26.84375 41.28515625 C26.4828125 40.38925781 26.121875 39.49335937 25.75 38.5703125 C25.41484375 37.74289551 25.0796875 36.91547852 24.734375 36.06298828 C24 34 24 34 24 32 C19.71 32 15.42 32 11 32 C11 39.26 11 46.52 11 54 C7.37 54 3.74 54 0 54 C0 36.18 0 18.36 0 0 Z M11 8 C11 13.28 11 18.56 11 24 C13.371875 24.061875 15.74375 24.12375 18.1875 24.1875 C18.92508545 24.21481201 19.6626709 24.24212402 20.42260742 24.27026367 C24.83935173 24.32573392 27.52119467 23.72835006 31 21 C33.31537595 18.18291805 33.31537595 18.18291805 32.8125 15 C31.98552564 11.94655621 31.50790541 10.83270011 29 9 C25.37918537 7.79306179 22.0749281 7.89217921 18.3125 7.9375 C15.899375 7.958125 13.48625 7.97875 11 8 Z " fill="#459269" transform="translate(368,834)"/>
<path d="M0 0 C5.15625 -0.061875 10.3125 -0.12375 15.625 -0.1875 C17.24100098 -0.21481201 18.85700195 -0.24212402 20.52197266 -0.27026367 C22.44855713 -0.28150269 22.44855713 -0.28150269 24.4140625 -0.29296875 C25.7232666 -0.3086792 27.0324707 -0.32438965 28.38134766 -0.34057617 C33.71501508 0.16141182 36.89356433 1.99191417 40.8125 5.5625 C43.90963056 9.59177664 44.25980588 14.04006952 44 19 C42.32402028 25.01380959 39.66441338 27.27226665 35 31 C35.24234375 31.59014893 35.4846875 32.18029785 35.734375 32.78833008 C36.82832331 35.46087736 37.91424039 38.1366161 39 40.8125 C39.3815625 41.74126953 39.763125 42.67003906 40.15625 43.62695312 C40.69765625 44.9659668 40.69765625 44.9659668 41.25 46.33203125 C41.58515625 47.15421143 41.9203125 47.9763916 42.265625 48.82348633 C43 51 43 51 43 54 C39.37 54 35.74 54 32 54 C30.66249352 50.7099729 29.3298307 47.41812805 28 44.125 C27.6184375 43.18785156 27.236875 42.25070312 26.84375 41.28515625 C26.4828125 40.38925781 26.121875 39.49335937 25.75 38.5703125 C25.41484375 37.74289551 25.0796875 36.91547852 24.734375 36.06298828 C24 34 24 34 24 32 C19.71 32 15.42 32 11 32 C11 39.26 11 46.52 11 54 C7.37 54 3.74 54 0 54 C0 36.18 0 18.36 0 0 Z M11 8 C11 13.28 11 18.56 11 24 C13.371875 24.061875 15.74375 24.12375 18.1875 24.1875 C18.92508545 24.21481201 19.6626709 24.24212402 20.42260742 24.27026367 C24.83935173 24.32573392 27.52119467 23.72835006 31 21 C33.31537595 18.18291805 33.31537595 18.18291805 32.8125 15 C31.98552564 11.94655621 31.50790541 10.83270011 29 9 C25.37918537 7.79306179 22.0749281 7.89217921 18.3125 7.9375 C15.899375 7.958125 13.48625 7.97875 11 8 Z " fill="#459269" transform="translate(173,834)"/>
<path d="M0 0 C4.29 0 8.58 0 13 0 C13.7734375 1.36511719 14.546875 2.73023438 15.34375 4.13671875 C16.39571345 5.98704733 17.44780368 7.83730383 18.5 9.6875 C19.0053125 10.58017578 19.510625 11.47285156 20.03125 12.39257812 C24.19776096 19.71001301 28.57921427 26.81622319 33 34 C33.33 22.78 33.66 11.56 34 0 C36.64 0 39.28 0 42 0 C42 17.82 42 35.64 42 54 C31 54 31 54 28.57714844 51.98730469 C28.0927832 51.05821289 27.60841797 50.12912109 27.109375 49.171875 C26.54476562 48.14320313 25.98015625 47.11453125 25.3984375 46.0546875 C24.85445312 44.96414063 24.31046875 43.87359375 23.75 42.75 C23.19054687 41.70585938 22.63109375 40.66171875 22.0546875 39.5859375 C20.98504684 37.58960355 19.93274113 35.58379301 18.90527344 33.56542969 C16.08800889 28.29334723 13.01194497 23.16333424 10 18 C9.67 29.88 9.34 41.76 9 54 C6.03 54 3.06 54 0 54 C0 36.18 0 18.36 0 0 Z " fill="#459269" transform="translate(550,834)"/>
<path d="M0 0 C6.86793592 5.23271308 11.72272013 11.45423574 12.92407227 20.16967773 C13.0614839 22.41440023 13.09333931 24.62638034 13.0625 26.875 C13.05347656 27.66366455 13.04445313 28.4523291 13.03515625 29.26489258 C12.81896539 36.55758095 11.76069864 42.5107988 6.75390625 48.08203125 C0.11387361 54.24508612 -5.31587178 55.42997574 -14.28515625 55.23828125 C-21.11516973 54.71156719 -24.38780163 51.2823375 -28.76171875 46.42578125 C-32.82405339 40.31752505 -33.90974542 34.30265275 -33.8125 27.0625 C-33.80492676 26.27125732 -33.79735352 25.48001465 -33.78955078 24.66479492 C-33.62175826 18.72530701 -32.81495334 13.97355482 -29.375 9 C-28.92769531 8.34644531 -28.48039063 7.69289063 -28.01953125 7.01953125 C-21.10052649 -1.9770299 -10.57520508 -3.1333941 0 0 Z M-17.375 10 C-22.92139207 17.08705653 -22.99501777 24.27546421 -22.375 33 C-21.33891282 38.14996275 -19.91517853 42.97321431 -15.375 46 C-11.46957535 47.06511581 -9.34405484 47.44047947 -5.625 45.75 C-4.8825 45.1725 -4.14 44.595 -3.375 44 C-2.5396875 43.38125 -2.5396875 43.38125 -1.6875 42.75 C3.05051403 36.43264796 2.18365413 27.45158658 1.625 20 C0.60075768 15.13297993 -1.19709325 10.90132413 -5.375 8 C-10.45517249 6.61449841 -13.28878896 6.57641778 -17.375 10 Z " fill="#459269" transform="translate(256.375,834)"/>
<path d="M0 0 C3.52258642 2.04518586 5.94766886 3.8229936 7.3125 7.8125 C6.9825 8.8025 6.6525 9.7925 6.3125 10.8125 C3.30134156 11.40443713 0.38700435 11.86615627 -2.6875 11.8125 C-4.75 9.9375 -4.75 9.9375 -6.6875 7.8125 C-10.67856652 6.51328047 -13.76063187 6.46492445 -17.6875 7.9375 C-19.89001194 9.66297753 -19.89001194 9.66297753 -20.3125 12.3125 C-19.92984866 14.96063561 -19.92984866 14.96063561 -17.6796875 16.31640625 C-13.27864131 18.51692934 -8.6765153 19.61162561 -3.92578125 20.83007812 C1.38325996 22.28184249 5.4054466 23.97503569 8.6015625 28.73046875 C10.40365611 34.00802861 10.30731186 40.60134718 7.9375 45.6875 C4.82972018 50.1502288 0.442191 52.33467609 -4.6875 53.8125 C-13.38206195 54.77449052 -22.24867352 54.98146832 -29.4609375 49.453125 C-32.65762195 46.54159081 -34.42381922 44.29507333 -34.6875 39.8125 C-30.61922177 38.20411093 -27.85952467 37.20787513 -23.6875 38.8125 C-21.98069053 40.43803283 -20.31089805 42.10365995 -18.6875 43.8125 C-13.00382113 45.70705962 -8.18946983 44.95961018 -2.6875 42.8125 C-2.20298189 38.20642205 -2.20298189 38.20642205 -3.94580078 34.16210938 C-5.89571704 32.65115661 -7.35573573 32.12119612 -9.7421875 31.53125 C-10.52207031 31.32886719 -11.30195313 31.12648438 -12.10546875 30.91796875 C-13.32169922 30.61826172 -13.32169922 30.61826172 -14.5625 30.3125 C-26.98298532 27.2223311 -26.98298532 27.2223311 -30.5 22.25 C-32.3849133 16.79367202 -32.72956886 11.41767214 -30.5625 6 C-22.65238987 -3.22846182 -11.16654441 -5.25387562 0 0 Z " fill="#459269" transform="translate(307.6875,835.1875)"/>
<path d="M0 0 C7.239375 -0.0928125 7.239375 -0.0928125 14.625 -0.1875 C16.89238037 -0.22846802 16.89238037 -0.22846802 19.20556641 -0.27026367 C21.01033447 -0.28150269 21.01033447 -0.28150269 22.8515625 -0.29296875 C24.07697754 -0.3086792 25.30239258 -0.32438965 26.56494141 -0.34057617 C30.99039565 0.09819488 34.34514058 1.49057953 37.64453125 4.5 C41.92335633 9.99521348 42.62844431 14.21512907 42 21 C40.17465409 26.27322153 37.39280797 28.79691086 33 32 C30.17588235 32.94137255 28.47081968 33.11725382 25.55078125 33.09765625 C24.78677002 33.09515869 24.02275879 33.09266113 23.2355957 33.09008789 C22.27097412 33.08098389 21.30635254 33.07187988 20.3125 33.0625 C15.7028125 33.0315625 15.7028125 33.0315625 11 33 C11 39.93 11 46.86 11 54 C7.37 54 3.74 54 0 54 C0 36.18 0 18.36 0 0 Z M11 8 C11 13.61 11 19.22 11 25 C13.041875 25.04125 15.08375 25.0825 17.1875 25.125 C18.33605469 25.14820313 19.48460937 25.17140625 20.66796875 25.1953125 C23.94650754 25.00313555 26.09046374 24.47844429 29 23 C31.16719206 20.3402643 30.99534863 18.91162404 30.8125 15.4375 C29.88587292 11.503305 29.88587292 11.503305 27 9 C21.83608171 7.2786939 16.40708764 7.94646448 11 8 Z " fill="#459269" transform="translate(124,834)"/>
<path d="M0 0 C11.88 0 23.76 0 36 0 C36 2.64 36 5.28 36 8 C27.75 8 19.5 8 11 8 C11 12.62 11 17.24 11 22 C17.6 22 24.2 22 31 22 C31 24.64 31 27.28 31 30 C24.4 30 17.8 30 11 30 C11 35.28 11 40.56 11 46 C19.25 46 27.5 46 36 46 C36 48.64 36 51.28 36 54 C24.12 54 12.24 54 0 54 C0 36.18 0 18.36 0 0 Z " fill="#459269" transform="translate(464,834)"/>
<path d="M0 0 C11.88 0 23.76 0 36 0 C36 2.64 36 5.28 36 8 C27.75 8 19.5 8 11 8 C11 12.62 11 17.24 11 22 C17.6 22 24.2 22 31 22 C31 24.64 31 27.28 31 30 C24.4 30 17.8 30 11 30 C11 35.28 11 40.56 11 46 C19.25 46 27.5 46 36 46 C36 48.64 36 51.28 36 54 C24.12 54 12.24 54 0 54 C0 36.18 0 18.36 0 0 Z " fill="#459269" transform="translate(324,834)"/>
<path d="M0 0 C4.37453879 3.4327978 6.76154458 7.18152583 7.5625 12.69921875 C7.60375 13.89546875 7.645 15.09171875 7.6875 16.32421875 C6.6875 17.32421875 6.6875 17.32421875 4.83984375 17.421875 C2.7890625 17.38932292 0.73828125 17.35677083 -1.3125 17.32421875 C-1.62703125 16.69773437 -1.9415625 16.07125 -2.265625 15.42578125 C-2.69359375 14.60851562 -3.1215625 13.79125 -3.5625 12.94921875 C-3.98015625 12.13710938 -4.3978125 11.325 -4.828125 10.48828125 C-6.48455023 8.07338762 -7.5718971 7.28024302 -10.3125 6.32421875 C-13.78261331 6.4688068 -15.7370343 6.90860463 -18.5625 8.94921875 C-23.55295808 15.72198329 -22.92525983 24.26549857 -22.3125 32.32421875 C-21.33064055 36.76276147 -19.8173031 40.323829 -16.3125 43.32421875 C-12.93009721 44.35364569 -11.03416831 44.58195743 -7.6875 43.38671875 C-4.32998416 40.47098131 -3.10777135 37.38020217 -1.3125 33.32421875 C1.6575 33.65421875 4.6275 33.98421875 7.6875 34.32421875 C8.52599726 39.77445095 6.60841307 42.99422699 3.50390625 47.265625 C-0.27507145 51.54846639 -3.82875935 53.03219479 -9.46875 53.6953125 C-16.2928158 53.9535627 -20.90153038 53.58391823 -26.3125 49.32421875 C-32.38088231 43.42921879 -34.48390751 35.93609969 -34.78930664 27.69897461 C-34.88137149 18.27250346 -33.68577364 10.66229661 -28 2.88671875 C-20.56408735 -4.2033375 -8.92155644 -5.29717414 0 0 Z " fill="#459269" transform="translate(635.3125,835.67578125)"/>
<path d="M0 0 C3.63 0 7.26 0 11 0 C12.25094272 3.8955328 13.50077273 7.79141707 14.75 11.6875 C15.09804688 12.77095703 15.44609375 13.85441406 15.8046875 14.97070312 C18.25936962 22.63022047 20.6506052 30.30755022 23 38 C23.32798584 36.91992676 23.65597168 35.83985352 23.99389648 34.72705078 C25.20905832 30.72715366 26.42655934 26.72797179 27.64477539 22.72900391 C28.17210904 20.99677702 28.69880462 19.26435576 29.22485352 17.53173828 C29.980263 15.04408442 30.73795014 12.55713426 31.49609375 10.0703125 C31.73154404 9.29317902 31.96699432 8.51604553 32.20957947 7.71536255 C33.88612829 2.22774341 33.88612829 2.22774341 35 0 C37.97 0 40.94 0 44 0 C41.38329962 9.99617194 38.33166739 19.85112258 35.27441406 29.71923828 C34.36678127 32.65155247 33.46453108 35.58548969 32.5625 38.51953125 C31.98730339 40.38030859 31.41179418 42.24098933 30.8359375 44.1015625 C30.56615082 44.98059235 30.29636414 45.85962219 30.0184021 46.76528931 C28.11452691 52.88547309 28.11452691 52.88547309 27 54 C25.14712498 54.07226502 23.29166122 54.0838122 21.4375 54.0625 C20.42558594 54.05347656 19.41367187 54.04445313 18.37109375 54.03515625 C17.19740234 54.01775391 17.19740234 54.01775391 16 54 C13.71535878 46.79363508 11.43737742 39.58519 9.1640625 32.37524414 C8.38956248 29.92163198 7.61352665 27.46850406 6.8359375 25.01586914 C5.71993464 21.4949086 4.6094268 17.97225604 3.5 14.44921875 C3.15001953 13.34913986 2.80003906 12.24906097 2.43945312 11.11564636 C2.11912109 10.09481461 1.79878906 9.07398285 1.46875 8.0222168 C1.18451172 7.12286911 0.90027344 6.22352142 0.60742188 5.29692078 C0 3 0 3 0 0 Z " fill="#459269" transform="translate(415,834)"/>
<path d="M0 0 C3.43455401 1.87139161 5.81299959 3.928438 7.828125 7.24609375 C8.87575318 12.93089781 8.84379487 18.63600584 5.578125 23.55859375 C1.40521575 28.30053608 -4.27840047 32.02988467 -10.171875 34.24609375 C-16.10780137 32.40354871 -20.08617025 26.56915645 -23.15625 21.4296875 C-24.85942347 17.76786454 -25.42669343 14.26913618 -25.171875 10.24609375 C-23.39559937 5.64867447 -20.02822575 3.13835682 -16.171875 0.24609375 C-11.06592779 -1.45588865 -5.13960793 -1.78407254 0 0 Z M-14.171875 12.24609375 C-13.96295316 15.51920258 -13.73493286 17.57042432 -11.609375 20.12109375 C-11.135 20.49234375 -10.660625 20.86359375 -10.171875 21.24609375 C-6.32907215 19.99977931 -4.09867604 18.88560683 -2.171875 15.24609375 C-2.41983867 13.07641166 -2.61421107 11.80375768 -4.171875 10.24609375 C-9.76472278 9.59659963 -9.76472278 9.59659963 -14.171875 12.24609375 Z " fill="#EFEFF6" transform="translate(448.171875,674.75390625)"/>
<path d="M0 0 C3.3339282 2.15927992 5.79184162 4.97165858 8.44921875 7.90234375 C9.3141394 8.84460815 9.3141394 8.84460815 10.1965332 9.8059082 C14.31776601 14.33128475 18.22526851 18.99900813 22.05078125 23.77734375 C25.93883445 28.50345789 30.10321368 32.9764364 34.26171875 37.46484375 C31.91447937 40.14959467 29.69700241 41.31201389 26.38671875 42.58984375 C25.54367187 42.92242188 24.700625 43.255 23.83203125 43.59765625 C14.46587169 46.75766753 3.74355829 47.13654536 -5.30078125 42.96484375 C-11.415359 39.49552133 -15.50514849 35.16424204 -17.73828125 28.46484375 C-18.58591438 20.7181207 -18.46908528 14.70431181 -13.59765625 8.40625 C-4.28356247 -1.31875968 -4.28356247 -1.31875968 0 0 Z M-8.046875 10.703125 C-11.24784569 14.03716145 -12.59401881 17.28331413 -12.8984375 21.88671875 C-12.68877348 27.42184893 -11.36770391 30.86767518 -7.69921875 34.9921875 C-1.9317861 39.32350644 3.34125833 39.92294343 10.32421875 39.77734375 C11.10087891 39.78056641 11.87753906 39.78378906 12.67773438 39.78710938 C17.2498825 39.74452374 20.96141491 39.19184577 25.26171875 37.46484375 C23.68041255 33.72562246 21.32941477 31.16834638 18.57421875 28.21484375 C17.66739146 27.23490891 16.76114415 26.25443704 15.85546875 25.2734375 C14.99953125 24.34660156 14.14359375 23.41976562 13.26171875 22.46484375 C12.0260732 21.07474251 10.79601521 19.67963287 9.57421875 18.27734375 C9.03023438 17.65472656 8.48625 17.03210938 7.92578125 16.390625 C6.72407202 14.99991456 5.53260888 13.60032776 4.34765625 12.1953125 C3.72117187 11.45925781 3.0946875 10.72320313 2.44921875 9.96484375 C1.88589844 9.29453125 1.32257813 8.62421875 0.7421875 7.93359375 C-2.61311915 4.60484625 -5.2700072 8.21611814 -8.046875 10.703125 Z " fill="#060683" transform="translate(423.73828125,742.53515625)"/>
<path d="M0 0 C3.63 0 7.26 0 11 0 C11 17.82 11 35.64 11 54 C7.37 54 3.74 54 0 54 C0 36.18 0 18.36 0 0 Z " fill="#459269" transform="translate(528,834)"/>
<path d="M0 0 C2.65683189 1.49748707 4.84652751 2.84652751 7 5 C7.36641977 10.49629655 7.37905588 13.43863947 4 18 C1.51953125 19.80078125 1.51953125 19.80078125 -1.1875 21.3125 C-2.08855469 21.82425781 -2.98960937 22.33601562 -3.91796875 22.86328125 C-4.60503906 23.23839844 -5.29210937 23.61351562 -6 24 C-14.44558522 17.4312115 -14.44558522 17.4312115 -15.3515625 11.82421875 C-15.50150062 9.41337167 -15.4867486 7.36736819 -15 5 C-10.61028825 0.37925079 -6.28256195 -0.88585289 0 0 Z M-10 8 C-9.79107816 11.27310883 -9.56305786 13.32433057 -7.4375 15.875 C-6.963125 16.24625 -6.48875 16.6175 -6 17 C-2.15719715 15.75368556 0.07319896 14.63951308 2 11 C1.75203633 8.83031791 1.55766393 7.55766393 0 6 C-5.59284778 5.35050588 -5.59284778 5.35050588 -10 8 Z " fill="#030381" transform="translate(444,679)"/>
<path d="M0 0 C3.63 0 7.26 0 11 0 C11 3.3 11 6.6 11 10 C7.37 10 3.74 10 0 10 C0 6.7 0 3.4 0 0 Z " fill="#459269" transform="translate(649,878)"/>
<path d="M0 0 C2 1 2 1 2 1 Z " fill="#99C3B1" transform="translate(515,582)"/>
<path d="" fill="#D5D7D6" transform="translate(0,0)"/>
</svg>
